<?xml version="1.0" standalone="no"?>
<!DOCTYPE svg PUBLIC "-//W3C//DTD SVG 1.1//EN" "http://www.w3.org/Graphics/SVG/1.1/DTD/svg11.dtd" >
<svg xmlns="http://www.w3.org/2000/svg" xmlns:xlink="http://www.w3.org/1999/xlink" version="1.1">
<metadata></metadata>
<defs>
<font id="baskerville_small_casmallcaps" horiz-adv-x="1139" >
<font-face units-per-em="2048" ascent="1638" descent="-410" />
<missing-glyph horiz-adv-x="532" />
<glyph unicode="&#xd;" horiz-adv-x="0" />
<glyph unicode=" "  horiz-adv-x="532" />
<glyph unicode="&#x09;" horiz-adv-x="532" />
<glyph unicode="&#xa0;" horiz-adv-x="532" />
<glyph unicode="!" horiz-adv-x="655" d="M350 326h-49q1 27 1.5 50t0.5 58q0 320 -55 596q-15 69 -24 127t-9 96q0 54 30 96t81 42q56 0 83 -43t27 -103q0 -25 -4.5 -63t-11 -76.5t-14.5 -75.5q-20 -99 -33.5 -220.5t-18 -237.5t-4.5 -246zM328 -27q-47 0 -82 34t-35 81q0 48 31.5 84.5t79.5 36.5 q49 0 85.5 -32.5t36.5 -82.5q0 -49 -33.5 -85t-82.5 -36z" />
<glyph unicode="&#x22;" horiz-adv-x="778" d="M182 913l-67 406q0 38 27 65t61 27q36 0 62 -27t26 -65l-68 -406h-41zM553 913l-68 406q0 38 27 65t61 27q36 0 62.5 -26.5t26.5 -65.5l-68 -406h-41z" />
<glyph unicode="#" horiz-adv-x="1065" d="M1010 557l-15 -96h-252l-63 -461h-115l64 461h-258l-68 -461h-115l68 461h-252l14 96h256l43 303h-258l15 96h260l63 443h115l-63 -443h256l61 443h115l-62 -443h242l-14 -96h-244l-41 -303h248zM688 860h-256l-43 -303h258z" />
<glyph unicode="$" horiz-adv-x="1065" d="M401 1366v168h58v-156q56 4 86 4q26 0 76 -4v156h57v-154q52 -3 119 -31.5t113 -75t46 -102.5q0 -42 -23.5 -68t-64.5 -26q-34 0 -55.5 24.5t-21.5 59.5q0 13 4 38t4 38q0 67 -121 92v-551q162 -91 240.5 -174t78.5 -229q0 -94 -42 -172.5t-113.5 -131t-163.5 -81.5v-295 h-57v287q-23 -2 -46.5 -4.5t-46.5 -2.5q-32 0 -69 5v-285h-58v285q-64 3 -143 26.5t-134.5 68.5t-55.5 113q0 40 25.5 66.5t64.5 26.5q41 0 61.5 -25.5t20.5 -67.5l-2 -34q0 -112 163 -129v663q-129 51 -214 135t-85 205q0 64 24 121t66.5 101.5t95 73t113.5 42.5zM401 895 v420q-77 -31 -121 -81.5t-44 -131.5q0 -126 165 -207zM621 805v526q-27 2 -78 2q-56 0 -84 -2v-461zM678 555v-508q83 30 131.5 100.5t48.5 163.5q0 55 -24 97.5t-59 73.5t-97 73zM459 662v-637q19 0 31 -0.5t26 -1.5q35 2 105 10v555z" />
<glyph unicode="%" horiz-adv-x="1843" d="M1440 1511l-979 -1663h-84l866 1477l-4 4q-37 -21 -77 -38t-80.5 -26.5t-82.5 -9.5q-60 0 -159 31q22 -62 22 -141q0 -106 -46 -222t-130.5 -195t-189.5 -79q-138 0 -226 93.5t-88 234.5q0 107 55 219.5t150 185t205 72.5q64 0 105 -18t92 -54t94.5 -53.5t111.5 -17.5 q199 0 377 200h68zM633 1399q-87 0 -154 -85.5t-105 -204.5t-38 -204q0 -49 18 -95t55 -75.5t87 -29.5q72 0 128 46t95.5 123t58.5 155t19 145q0 55 -17 107t-54.5 85t-92.5 33zM1284 -98q-135 0 -222 89.5t-87 225.5q0 115 54.5 227.5t151 185t212.5 72.5q85 0 144.5 -39 t90.5 -104.5t31 -150.5q0 -82 -25.5 -173t-71.5 -164.5t-117.5 -121t-160.5 -47.5zM1419 647q-83 0 -150 -87t-104 -204.5t-37 -197.5q0 -82 43 -141.5t119 -59.5q92 0 161 78t105.5 188.5t36.5 198.5q0 55 -19 107t-58 85t-97 33z" />
<glyph unicode="&#x26;" horiz-adv-x="1516" d="M578 766q54 37 93.5 89t61 114.5t21.5 130.5q0 58 -17 111.5t-55 87.5t-98 34q-83 0 -127.5 -55t-44.5 -137q0 -91 47.5 -185.5t118.5 -189.5zM766 223l-307 385q-77 -69 -104.5 -97t-51.5 -77t-24 -112q0 -102 64 -178t165 -76q70 0 142 42t126 103zM610 721l293 -350 l107 180q45 86 79 138t86 92t121 40q59 0 103.5 -39.5t44.5 -99.5q0 -44 -31.5 -78.5t-75.5 -34.5q-42 0 -67 27.5t-25 71.5q0 37 -3.5 50t-16.5 13q-59 0 -154 -186l-108 -189l-19 -28q114 -117 187.5 -178.5t146.5 -61.5q50 0 87.5 26.5t80.5 75.5l35 -32 q-67 -87 -139 -132.5t-171 -45.5q-73 0 -133 25.5t-107.5 64t-115.5 104.5q-87 -98 -193 -149.5t-231 -51.5q-115 0 -206 71t-91 181q0 142 92 239.5t246 186.5q-143 204 -143 398q0 91 40 169t113.5 125.5t163.5 47.5q123 0 201 -75t78 -198q0 -114 -80.5 -216t-194.5 -181 z" />
<glyph unicode="'" horiz-adv-x="451" d="M205 913l-68 406q0 38 27 65t61 27q36 0 62 -27t26 -65l-67 -406h-41z" />
<glyph unicode="(" horiz-adv-x="901" d="M698 1411l45 -39q-117 -161 -179 -279t-90 -251.5t-28 -319.5q0 -131 16 -246t54 -227.5t98 -214t144 -194.5l-45 -41q-96 96 -173 200t-133 218.5t-87 240t-31 254.5q0 166 51 327t142 303.5t216 268.5z" />
<glyph unicode=")" horiz-adv-x="901" d="M203 -401l-45 41q84 112 140 205.5t89.5 188.5t49.5 207t16 248q0 267 -71.5 482t-238.5 401l43 39q130 -125 224.5 -270t147 -307t52.5 -336q0 -154 -29.5 -271.5t-80.5 -211t-140 -211t-157 -205.5z" />
<glyph unicode="*" horiz-adv-x="1024" d="M899 1149q0 -53 -32.5 -69.5t-112 -32t-123.5 -39.5q-19 -9 -41.5 -21.5t-22.5 -19.5q0 -6 11 -14t31.5 -19.5t31.5 -18.5q37 -21 116 -35t110.5 -30t31.5 -66q0 -31 -24 -55t-56 -24q-30 0 -49.5 16t-48 54.5t-55 67.5t-66.5 50q-48 29 -57 29q-7 0 -9 -15t-2 -67 q3 -53 14.5 -85.5t27 -69t16.5 -64.5q-2 -37 -21.5 -63t-56.5 -26q-33 0 -55.5 25.5t-22.5 58.5q0 28 29 99.5t29 132.5q0 45 -2 59.5t-9 14.5q-13 0 -45 -21q-44 -23 -72 -52.5t-58.5 -70.5t-50.5 -57t-50 -16t-55 24t-25 55q0 69 86 88q33 8 75 12.5t93 28.5 q20 12 38.5 22t29 17t10.5 15q0 9 -78 49q-31 17 -106 30t-111.5 32t-36.5 69q0 32 25 55t55 23t52.5 -17.5t42.5 -45t52.5 -66t71.5 -62.5q52 -26 57 -26q7 0 9 11.5t2 49.5q0 64 -9.5 93.5t-29 75.5t-19.5 75q0 36 22.5 61t55.5 25t55.5 -25t22.5 -61q0 -31 -29 -101 t-29 -131q0 -45 2 -59t9 -14q11 0 67 32q36 21 58.5 45.5t51.5 66t49.5 57.5t49.5 16q32 0 56 -22.5t24 -53.5z" />
<glyph unicode="+" horiz-adv-x="1065" d="M485 573v471h95v-471h417v-96h-417v-477h-95v477h-417v96h417z" />
<glyph unicode="," horiz-adv-x="532" d="M145 -319l-22 40q87 62 144 130t57 163q-33 -22 -64 -22q-46 0 -77 29.5t-31 76.5q0 49 33 81t79 32q68 0 108 -52.5t40 -125.5q0 -69 -20 -119.5t-56 -88.5t-72 -63.5t-119 -80.5z" />
<glyph unicode="-" horiz-adv-x="682" d="M494 395h-494v140h494v-140z" />
<glyph unicode="." horiz-adv-x="532" d="M266 -27q-46 0 -81 34t-35 81q0 48 31.5 84.5t78.5 36.5q51 0 87 -32t36 -83q0 -49 -34 -85t-83 -36z" />
<glyph unicode="/" horiz-adv-x="1188" d="M162 -279h-86l897 1690h92z" />
<glyph unicode="0" d="M1067 455q0 -125 -66 -237t-180.5 -178.5t-251.5 -66.5q-138 0 -251.5 66.5t-179.5 178.5t-66 237t65.5 237t179.5 179t252 67q106 0 197.5 -39t157.5 -105t104.5 -154.5t38.5 -184.5zM862 455q0 105 -25.5 205t-90.5 167.5t-177 67.5q-111 0 -176.5 -67.5t-91 -167 t-25.5 -205.5q0 -107 25.5 -206.5t91 -167t176.5 -67.5q161 0 227 132.5t66 308.5z" />
<glyph unicode="1" d="M662 893v-741q0 -64 49.5 -89.5t142.5 -25.5v-41q-234 4 -285 4q-52 0 -284 -4v41q94 0 143 25.5t49 89.5v620q0 52 -22.5 71t-75.5 21l-92 2v41q126 4 210 10t165 21v-45z" />
<glyph unicode="2" d="M723 0h-256q-225 0 -305 -4q39 101 111 168.5t207 170t198 180t63 177.5q0 87 -53.5 145t-157.5 58q-56 0 -105 -24.5t-78.5 -67t-29.5 -90.5q0 -51 33.5 -87t79.5 -36q29 0 53 6q-5 -32 -46.5 -58t-94.5 -26q-69 0 -113.5 48.5t-44.5 119.5q0 84 56 142.5t139.5 87 t161.5 28.5q105 0 199 -30.5t150 -92t56 -147.5q0 -92 -51 -150.5t-144.5 -106t-210 -108t-198.5 -135.5h379q77 0 205 8l-72 -295h-39q1 11 5 30t6.5 36.5t2.5 36.5q0 16 -106 16z" />
<glyph unicode="3" d="M588 313v-16q403 0 403 -332q0 -98 -44.5 -189.5t-119.5 -157.5t-172.5 -103t-197.5 -37q-101 0 -178.5 27t-119.5 74.5t-42 103.5q0 39 27.5 63.5t60.5 24.5q50 0 67.5 -26.5t39.5 -90.5t57 -95.5t114 -31.5q115 0 182 56.5t94 146.5t27 194q0 139 -45.5 235.5 t-165.5 96.5q-71 0 -95.5 -24.5t-63 -81t-74.5 -56.5q-23 0 -34 13.5t-11 31.5q0 26 52.5 60t149 99t152.5 147.5t56 199.5q0 244 -197 244q-91 0 -157 -59.5t-66 -145.5q0 -62 38.5 -105.5t94.5 -43.5q63 0 106 24q-10 -51 -61.5 -79.5t-110.5 -28.5q-75 0 -129.5 45 t-54.5 129q0 86 53 158.5t146.5 113.5t201.5 41q92 0 166.5 -32t117 -91t42.5 -137q0 -130 -87.5 -219t-221.5 -146z" />
<glyph unicode="4" d="M631 -27h-582v58l723 907h43v-899h275v-66h-275v-348q0 -37 23 -58.5t67.5 -30.5t108.5 -9v-41q-246 4 -291 4t-291 -4v41q101 0 150 22.5t49 75.5v348zM627 672l-504 -633h508v633h-4z" />
<glyph unicode="5" d="M231 129l39 809q55 -36 101.5 -60t96.5 -38.5t103 -14.5q89 0 169 33.5t122 102.5h2q-3 -99 -53.5 -168t-132.5 -103.5t-174 -34.5q-79 0 -199 31l-16 -438q75 77 144.5 111t170.5 34q186 0 289.5 -101t103.5 -267q0 -155 -71 -280t-194 -196t-271 -71q-94 0 -174 22.5 t-128 67.5t-48 108q0 39 27 67t65 28q54 0 68 -27t26 -91.5t45 -98t119 -33.5q185 0 258.5 140.5t73.5 346.5q0 143 -61 233.5t-189 90.5q-55 0 -107.5 -23.5t-85.5 -60t-33 -74.5q0 -27 -0.5 -44.5t-1.5 -39.5q0 -47 -43 -47q-19 0 -30 14t-11 35v37z" />
<glyph unicode="6" d="M842 457q0 185 -55.5 285t-198.5 100q-66 0 -114 -21.5t-97 -70.5q-56 -58 -73 -94.5t-17 -98.5q0 -106 7 -193.5t35.5 -167.5t85.5 -128t150 -48q277 0 277 437zM92 645q0 145 35.5 286t106 252.5t176 177.5t237.5 66q102 0 199.5 -40t97.5 -130q0 -41 -26.5 -66.5 t-67.5 -25.5q-43 0 -59.5 21t-43.5 78.5t-61.5 86.5t-103.5 29q-99 0 -159 -69t-86 -171t-33 -198.5t-7 -206.5v-4h4q141 172 336 172q120 0 214 -53t145 -149.5t51 -219.5q0 -105 -34 -198t-93.5 -161.5t-148 -108.5t-191.5 -40q-175 0 -284.5 99t-156.5 253t-47 320z" />
<glyph unicode="7" d="M242 1075h37q0 -12 -1.5 -28.5t-3.5 -32t-2 -21.5q0 -31 6 -50t22.5 -26.5t49.5 -7.5h660v-43q-70 -138 -132 -284t-109.5 -289.5t-88 -299.5t-68.5 -306q-17 -92 -44 -150.5t-93 -58.5q-43 0 -72.5 28.5t-29.5 81.5q3 39 18 84t33.5 87t60.5 128.5t47 98.5l369 755h-493 q-78 0 -114 -9.5t-57.5 -41t-39.5 -100.5l-27 -103h-45z" />
<glyph unicode="8" d="M254 338q0 -84 32.5 -158t102.5 -120t176 -46q87 0 160 35t115.5 103t42.5 159q0 82 -40.5 139.5t-101.5 96.5t-157.5 84.5t-124.5 60.5q-103 -66 -154 -154t-51 -200zM287 1147q0 -72 37 -127t125 -106t239 -111q65 45 101 119t36 157q0 70 -16.5 126t-49.5 96.5 t-85.5 62.5t-122.5 22q-116 0 -190 -68.5t-74 -170.5zM156 1063q0 76 28.5 142t82.5 117t126.5 78t157.5 27q96 0 170.5 -24t126.5 -67.5t80 -102.5t28 -133q0 -104 -54 -169.5t-171 -150.5q102 -61 155 -103.5t90.5 -117t37.5 -186.5q0 -113 -54 -203.5t-159 -143.5 t-244 -53q-126 0 -224.5 41.5t-154 123.5t-55.5 198q0 97 44 168t102 115.5t145 95.5q-106 56 -182 139t-76 209z" />
<glyph unicode="9" d="M557 889q-147 0 -203.5 -123.5t-56.5 -292.5q0 -81 6.5 -150t30.5 -128.5t75.5 -96.5t135.5 -37q119 0 211 95q46 46 62.5 70t20 49t3.5 85q0 255 -56.5 392t-228.5 137zM1047 303q0 -129 -29 -273t-92.5 -268.5t-173.5 -204t-265 -79.5q-128 0 -207 44.5t-79 108.5 q0 41 25 68t63 27q45 0 63.5 -23.5t40.5 -73.5t53.5 -76t92.5 -26q134 0 201 113t81 317q4 61 6 111.5t4 103.5l-4 4q-68 -82 -143 -129t-195 -47q-190 0 -293.5 133t-103.5 338q0 99 35.5 184.5t101.5 150t151 98.5t183 34q134 0 228 -58t150.5 -153.5t81 -205t24.5 -218.5 z" />
<glyph unicode=":" horiz-adv-x="532" d="M266 668q-46 0 -81 34t-35 82q0 47 32 83t78 36q51 0 87 -31t36 -81t-34 -86.5t-83 -36.5zM266 -27q-46 0 -81 34t-35 81q0 48 31.5 84.5t78.5 36.5q51 0 87 -32t36 -83q0 -49 -34 -85t-83 -36z" />
<glyph unicode=";" horiz-adv-x="532" d="M145 -326l-22 41q87 62 144 130t57 163q-33 -22 -64 -22q-46 0 -77 29.5t-31 76.5q0 49 33 81t79 32q68 0 108 -52.5t40 -125.5q0 -89 -34 -149.5t-75.5 -92.5t-157.5 -111zM270 668q-46 0 -81 34t-35 82q0 47 32 83t78 36q51 0 87 -31t36 -81t-34 -86.5t-83 -36.5z" />
<glyph unicode="&#x3c;" horiz-adv-x="1065" d="M150 504l851 -441v-104l-938 479v133l938 480v-109z" />
<glyph unicode="=" horiz-adv-x="1065" d="M997 743v-96h-929v96h929zM997 399v-96h-929v96h929z" />
<glyph unicode="&#x3e;" horiz-adv-x="1065" d="M63 63l852 441l-852 438v109l938 -480v-133l-938 -479v104z" />
<glyph unicode="?" horiz-adv-x="819" d="M283 334h-56v385h125q82 0 143.5 22t97.5 73.5t36 131.5q0 72 -30.5 138.5t-87.5 109.5t-130 43q-31 0 -94 -11.5t-86 -11.5q-42 0 -73.5 21t-31.5 61q0 48 34.5 71.5t82.5 23.5q96 0 182.5 -41.5t154.5 -114t106 -163.5t38 -187q0 -179 -113.5 -260.5t-297.5 -81.5v-209 zM266 -27q-46 0 -81 34t-35 81q0 48 31.5 84.5t78.5 36.5q51 0 87 -32t36 -83q0 -49 -34 -85t-83 -36z" />
<glyph unicode="@" horiz-adv-x="1679" d="M922 565l102 281q16 40 16 59q0 56 -31.5 95.5t-90.5 39.5q-75 0 -141 -66.5t-114 -167.5t-75 -207t-27 -169q0 -49 33 -81t84 -32q152 0 244 248zM1083 981l25 86h174l-192 -522q-52 -135 -52 -178t52 -43q54 0 122.5 30t112.5 68q166 139 166 379q0 99 -43 193 t-122.5 167.5t-194 117.5t-254.5 44q-134 0 -250.5 -49.5t-200.5 -136.5t-131 -202.5t-47 -244.5q0 -175 78.5 -324.5t220 -238t325.5 -88.5q96 0 187 24.5t167 69.5t137.5 106.5t104.5 135.5h68q-49 -120 -153 -212t-239.5 -141t-273.5 -49q-204 0 -376 95t-271.5 257.5 t-99.5 356.5q0 140 58 270.5t160 228.5t237 154t288 56q141 0 263.5 -41t219.5 -119.5t152 -190.5t55 -243q0 -96 -39 -194t-102 -173q-65 -74 -159.5 -122t-192.5 -48q-59 0 -110 28.5t-58 80.5q-50 -48 -117 -78.5t-131 -30.5q-113 0 -179.5 78.5t-66.5 187.5 q0 95 33 193.5t96.5 185.5t150.5 139t193 52q71 0 130.5 -29t74.5 -86h4z" />
<glyph unicode="A" horiz-adv-x="1352" d="M342 496l-18 -52q-15 -38 -40 -100t-42 -117t-17 -94q0 -31 16 -49.5t41 -26t54.5 -10t54.5 -4.5v-47q-56 2 -103.5 4t-121.5 4q-36 -2 -71 -3t-71 -2.5t-71 -2.5v47q84 9 125.5 40t71.5 107q95 223 169 396l314 813h69l414 -1051q16 -35 36 -84t37.5 -85.5t33.5 -57.5 q20 -27 48 -44t51.5 -22t76.5 -12v-47q-48 2 -96.5 3t-97.5 2.5t-97 2.5q-100 -2 -161.5 -4t-135.5 -4v47q73 3 115.5 16t42.5 64q0 53 -41 160l-80 213h-506zM369 563h452l-225 584z" />
<glyph unicode="B" horiz-adv-x="1311" d="M461 1208v-465h65q86 0 138 7.5t106 35.5q59 39 81.5 98.5t22.5 145.5q0 138 -71 206.5t-209 68.5q-105 0 -121 -11q-12 -12 -12 -86zM461 686v-287q0 -198 24 -260q17 -41 51 -60t72 -23.5t92 -4.5q99 0 163.5 38t96 109t31.5 171q0 195 -147 274q-49 26 -111.5 34.5 t-144.5 8.5h-64h-63zM250 389v584q0 219 -19 274q-15 47 -59 58.5t-115 11.5v49q49 -2 98 -3t105.5 -2.5t89.5 -2.5q41 2 81.5 3t81.5 2.5t81 2.5q136 0 248.5 -28.5t184 -101.5t71.5 -196q0 -88 -42 -150t-107.5 -99t-157.5 -66v-6q203 -18 299 -84q74 -51 115.5 -124 t41.5 -161q0 -98 -53 -173.5t-145 -127.5q-48 -23 -112.5 -35.5t-123.5 -15t-141 -2.5q-67 2 -124 4t-145 4q-57 -1 -114.5 -2.5t-116 -3t-115.5 -2.5v47q71 0 115.5 12.5t58.5 59.5q19 55 19 274z" />
<glyph unicode="C" horiz-adv-x="1393" d="M1229 1262l33 98h30l17 -408h-47q-12 85 -48 157.5t-92.5 124t-131 79.5t-161.5 28q-130 0 -223.5 -58.5t-149.5 -158.5t-80 -216.5t-24 -241.5q0 -170 47.5 -316t156 -238t278.5 -92q135 0 225 59t141.5 158t85.5 238h37v-452h-27l-49 106q-63 -52 -135.5 -88 t-149.5 -52t-167 -16q-155 0 -283.5 48.5t-222 140.5t-143.5 220.5t-50 283.5q0 154 52.5 288t149 232t229 151.5t286.5 53.5q122 0 214 -30t202 -99z" />
<glyph unicode="D" horiz-adv-x="1516" d="M250 389v580q0 219 -19 274q-15 47 -59 58.5t-115 11.5v53q86 -2 140 -4t118 -4q84 2 153 4t179 4q165 0 306 -50t242 -142.5t156.5 -226.5t55.5 -296q0 -210 -85.5 -357.5t-244.5 -222.5t-377 -75q-89 2 -165.5 4t-198.5 4q-92 -2 -150 -4t-129 -4v47q71 0 115.5 12.5 t58.5 59.5q19 55 19 274zM461 1231v-871v-67q0 -113 33 -162q52 -80 229 -80q128 0 213 43.5t132.5 120.5t65 177t17.5 226q0 164 -26.5 289t-88.5 214.5t-170.5 138.5t-269.5 49q-104 0 -123 -15q-12 -12 -12 -63z" />
<glyph unicode="E" horiz-adv-x="1270" d="M250 393v572q0 219 -21 274q-18 48 -61.5 59t-114.5 11v57h1018v-313h-47q-19 117 -61.5 171.5t-110 69.5t-190.5 15h-148q-37 0 -45 -4.5t-8 -28.5v-51v-490q135 0 205 31.5t96 85.5t33 137h47q-4 -188 -8 -282q4 -84 8 -256h-47q-15 105 -54.5 153.5t-101.5 61 t-178 12.5v-338q0 -72 6 -123t31 -86q25 -34 69.5 -51t89 -21t103.5 -4q87 2 151.5 12t111 37.5t77 84t39.5 145.5h47l-19 -334h-1114v47q71 0 115 12t61 60q21 55 21 274z" />
<glyph unicode="F" horiz-adv-x="1106" d="M1063 1366l33 -326h-47q-24 88 -50 139t-88 76q-58 25 -129 31t-174 6h-71q-47 0 -64 -6.5t-20 -23.5t-7 -84v-465q136 0 206.5 32t95.5 85t32 135h47q-4 -188 -8 -283q4 -80 8 -256h-47q-13 103 -53 150.5t-100 59t-181 11.5v-260q0 -217 21 -272q12 -30 33.5 -45 t46.5 -19.5t65 -5.5t58 -2v-47q-52 2 -105 3t-105.5 2.5t-105.5 2.5q-104 -2 -168.5 -4t-146.5 -4v47q70 0 114.5 12.5t61.5 59.5q21 55 21 274v584q0 219 -21 274q-18 47 -62 58.5t-114 11.5v49q63 -1 123.5 -2.5t112 -2.5t131.5 -3q165 2 301 4t356 4z" />
<glyph unicode="G" horiz-adv-x="1516" d="M1305 1354l-23 -410h-43q-11 177 -118.5 287t-282.5 110q-143 0 -239 -59t-150.5 -161t-75.5 -224t-21 -254q0 -166 46 -304.5t151.5 -224t269.5 -85.5q159 0 250.5 78t91.5 233q0 98 -38 132t-138 42v49h537v-49q-53 0 -81 -17t-37 -50.5t-9 -88.5v-219q-72 0 -112.5 -7 t-66.5 -20t-110 -61q-80 -40 -156.5 -59t-165.5 -19q-198 0 -355 83.5t-245 237t-88 353.5q0 158 52 294.5t148 238t228 156.5t289 55q255 0 426 -131l43 94h23z" />
<glyph unicode="H" horiz-adv-x="1679" d="M475 666v-277q0 -219 21 -274q17 -47 61.5 -59.5t114.5 -12.5v-47q-73 2 -135 4t-162 4q-52 -2 -103 -3t-111 -2.5t-93 -2.5v47q70 0 114.5 12.5t61.5 59.5q20 55 20 274v584q0 219 -20 274q-18 47 -62 58.5t-114 11.5v49q98 -2 158.5 -4t133.5 -4q52 2 104 3t104 2.5 t104 2.5v-49q-70 0 -114 -11.5t-62 -58.5q-21 -55 -21 -274v-240h731v240q0 219 -20 274q-18 47 -62 58.5t-114 11.5v49q100 -2 162 -4t137 -4q68 2 110 3t93 2.5t102 2.5v-49q-70 0 -114 -11.5t-62 -58.5q-21 -55 -21 -274v-584q0 -219 21 -274q17 -47 61.5 -59.5 t114.5 -12.5v-47q-49 2 -98.5 3t-99.5 2.5t-99 2.5q-104 -2 -167.5 -4t-139.5 -4v47q70 0 114.5 12.5t61.5 59.5q20 55 20 274v277h-731z" />
<glyph unicode="I" horiz-adv-x="737" d="M264 389v584q0 219 -20 274q-18 47 -62 58.5t-114 11.5v49q98 -2 159.5 -4t134.5 -4q79 2 142.5 4t167.5 4v-49q-70 0 -114 -11.5t-62 -58.5q-21 -55 -21 -274v-584q0 -219 21 -274q17 -47 61.5 -59.5t114.5 -12.5v-47q-72 2 -133.5 4t-161.5 4q-52 -2 -103.5 -3l-103 -2 t-102.5 -3v47q70 0 114.5 12.5t61.5 59.5q20 55 20 274z" />
<glyph unicode="J" horiz-adv-x="696" d="M455 1018v-1106q-8 -198 -70 -293q-109 -164 -362 -164q-65 0 -137.5 10.5t-128.5 44.5t-56 97q0 36 24.5 58t59.5 22q64 0 102 -86q22 -54 51.5 -76.5t86.5 -22.5q170 0 206 172q13 58 13 136v1314q0 73 -21 123q-19 48 -62.5 59t-113.5 11v49q24 0 61.5 -1t74.5 -2 t79.5 -2.5t79.5 -2.5q76 2 140.5 4t168.5 4v-49q-69 0 -111.5 -12t-64.5 -58q-20 -45 -20 -229z" />
<glyph unicode="K" horiz-adv-x="1352" d="M588 645l-127 -135v-244q0 -106 10 -146t49 -54.5t144 -22.5v-47q-75 2 -137 4t-162 4q-26 0 -65 -1l-78 -2t-84.5 -2.5t-84.5 -2.5v47q71 0 115 12t61 60q21 55 21 274v584q0 219 -21 274q-18 48 -61.5 59t-114.5 11v49q49 -2 98 -3t105.5 -2.5t89.5 -2.5q36 1 97.5 2.5 l123 3t97.5 2.5v-49q-107 -10 -145 -24t-48 -54t-10 -145v-504q76 78 190 206t208.5 256.5t94.5 182.5q0 53 -33 63.5t-120 18.5v49q82 -2 132.5 -4t110.5 -4q55 2 98 4t115 4v-49q-80 -1 -115.5 -23t-90.5 -92l-328 -409l285 -332q252 -326 335 -387q22 -16 39 -21t36 -6.5 t46 -3.5v-47q-54 2 -108 3t-108.5 2.5t-108.5 2.5q-26 0 -65 -1l-78 -2t-84.5 -2.5t-84.5 -2.5v47q77 0 124.5 12.5t47.5 50.5q0 16 -19 48t-44.5 65t-53 67.5t-44.5 55.5z" />
<glyph unicode="L" horiz-adv-x="1270" d="M250 389v584q0 219 -21 274q-18 48 -61.5 59t-114.5 11v49q49 -2 98 -3t105.5 -2.5t89.5 -2.5q52 2 104 3t112 2.5t95 2.5v-49q-70 0 -113.5 -11t-62.5 -59q-20 -55 -20 -274v-613q0 -137 21 -201t83 -86t197 -22q100 0 166.5 8.5t124.5 44.5q70 44 93.5 99t39.5 159h51 l-18 -366q-74 4 -107 8q-176 -3 -485 -4.5t-574 -3.5v47q71 0 115 12t61 60q21 55 21 274z" />
<glyph unicode="M" horiz-adv-x="1802" d="M1542 1016v-750q0 -106 10 -146t49 -54.5t144 -22.5v-47q-81 2 -144 4t-163 4q-104 -2 -168 -4t-142 -4v47q105 8 144 22.5t49 54.5t10 146v903h-4l-233 -577q-29 -66 -78.5 -182l-99 -232t-78.5 -182h-21l-498 1173h-4v-872q0 -88 15 -140t58 -81t124 -33v-47 q-57 2 -105 4t-122 4q-72 -2 -117 -4t-98 -4v47q184 0 184 188v881q0 88 -18 135t-62 58.5t-115 11.5v49q71 -4 207 -8q122 4 189 8l450 -1061l438 1061q61 -4 193 -8q130 4 203 8v-51q-69 0 -112.5 -12t-63.5 -58q-21 -45 -21 -229z" />
<glyph unicode="N" horiz-adv-x="1556" d="M268 430v764q-47 68 -93.5 95t-129.5 28v49q64 -2 105 -4t90 -4q41 2 74 4t87 4l865 -1067h4v575q0 234 -19 320q-9 41 -23.5 64t-35 33.5t-57.5 16t-66 9.5v49q76 -2 122.5 -4t102.5 -4q55 2 99 4t118 4v-49q-25 -2 -54 -5.5t-45 -10t-31 -24.5t-25 -50 q-6 -20 -11 -61.5t-8 -93.5t-4.5 -105t-1.5 -103v-891h-61q-75 93 -135 172l-801 979h-4v-694q0 -96 5.5 -176.5t24.5 -124.5q12 -27 30 -44t42 -25.5t52 -11.5t55 -5v-47q-39 2 -78.5 3t-79 2.5t-78.5 2.5q-37 -1 -75 -2.5t-76 -2.5t-76 -3v47q82 8 122.5 25.5t53.5 76.5 q10 48 13 120t3 165z" />
<glyph unicode="O" horiz-adv-x="1679" d="M840 -27q-147 0 -283 51.5t-239.5 145t-162.5 224.5t-59 282q0 152 60.5 282t166.5 228t242 151.5t283 53.5t280.5 -52t235.5 -146t160.5 -222t58.5 -281q0 -207 -98.5 -371t-269 -255t-375.5 -91zM840 1333q-126 0 -221 -57t-154 -152.5t-86 -210t-27 -237.5 q0 -274 121 -460.5t379 -186.5q131 0 223.5 56t147.5 150t79.5 209t24.5 238q0 125 -26.5 239t-84.5 207.5t-151.5 149t-224.5 55.5z" />
<glyph unicode="P" horiz-adv-x="1188" d="M461 639v-250q0 -219 20 -274q12 -30 32 -44t51 -20t58.5 -6.5t55.5 -1.5v-47q-80 2 -147 4t-173 4q-49 -1 -99 -2.5t-92 -2.5t-110 -3v47q71 0 115.5 12.5t58.5 59.5q19 55 19 274v582q0 221 -19 276q-16 47 -59.5 58.5t-114.5 11.5v49q102 -2 167.5 -4t142.5 -4 q33 1 89.5 2.5l113 3t89.5 2.5q124 -5 230 -41.5t173.5 -114.5t67.5 -202q0 -141 -77.5 -225t-196.5 -117t-258 -33q-14 0 -39 1.5t-46.5 2.5t-32 1.5t-19.5 0.5zM461 1208v-514q20 -1 40 -2.5t43 -3.5t36 -2q107 0 176.5 32.5t104 101t34.5 181.5q0 154 -72 229t-221 75 q-84 -4 -105.5 -8t-28.5 -22t-7 -67z" />
<glyph unicode="Q" horiz-adv-x="1638" d="M854 1333q-132 0 -229 -55.5t-157.5 -149.5t-88 -210t-27.5 -238q0 -167 49 -318t158 -246.5t283 -95.5q123 0 218 56.5t154 149.5t89 207t30 233t-26 236t-82.5 215t-150 157t-220.5 59zM528 -150l207 119q-185 47 -328 136.5t-227 229.5t-84 329q0 205 104.5 371 t279.5 261t376 95q146 0 279 -50.5t235 -142.5t160.5 -218.5t58.5 -274.5q0 -136 -52 -259t-146.5 -223.5t-210.5 -163.5q-82 -44 -182 -67t-176 -42t-148 -69v-4q27 0 71 4q95 0 180 -22t206.5 -67t195.5 -65t164 -20q75 0 125 18.5t77.5 42.5t44.5 47t21 23q13 0 13 -53 q0 -85 -49 -156t-128.5 -110t-167.5 -39q-114 0 -208.5 45.5t-205 131t-181.5 127.5t-154 42q-51 0 -88 -18t-94 -53.5t-78 -35.5q-18 0 -28.5 13t-10.5 30q0 32 48 54t101 34z" />
<glyph unicode="R" horiz-adv-x="1352" d="M461 1229v-541q156 0 245.5 16.5t143 83.5t53.5 207q0 92 -33.5 162t-98.5 109t-155 39q-18 1 -34.5 1.5t-51.5 0.5q-38 0 -47 -4q-22 -13 -22 -74zM768 668l434 -502q54 -64 90.5 -88t110.5 -35v-47q-48 2 -86 4t-98 4q-52 -2 -84 -4t-70 -4l-96 121l-340 426 q-17 20 -36.5 43t-33.5 32t-36 12t-62 3v-244q0 -219 18 -274q17 -48 60.5 -60t113.5 -12v-47q-70 2 -130 4t-158 4q-51 -1 -102.5 -2.5t-103 -2.5t-102.5 -3v47q71 0 115.5 12.5t58.5 59.5q19 55 19 274v584q0 219 -19 274q-15 47 -59 58.5t-115 11.5v49q59 -1 117.5 -2.5 t118 -2.5t117.5 -3q65 2 119.5 4t140.5 4q133 0 236 -27.5t168 -104t65 -210.5q0 -106 -49 -184t-134 -120.5t-188 -51.5z" />
<glyph unicode="S" horiz-adv-x="1065" d="M92 10v404h47q35 -174 128.5 -279.5t258.5 -105.5q81 0 148 30t106 89.5t39 138.5q0 86 -43 147.5t-106 98.5t-162 77q-84 33 -147 65.5t-118.5 81.5t-87.5 114t-32 147q0 114 54 199t146 129.5t205 44.5q164 0 310 -107l47 82h22l11 -358h-48q-89 325 -342 325 q-101 0 -170 -60.5t-69 -158.5q0 -75 38.5 -126t89.5 -78.5t144 -67.5q99 -40 173 -78t137 -90.5t102 -128t39 -170.5q0 -128 -70 -219.5t-182 -137t-238 -45.5q-103 0 -188 30t-170 93l-49 -86h-23z" />
<glyph unicode="T" horiz-adv-x="1352" d="M1300 1366l19 -324h-55q-6 99 -36 155.5t-89 78.5t-158 22h-59q-66 0 -103 -11t-37 -44v-981q0 -58 8 -97.5t32.5 -65.5t69 -39.5t118.5 -16.5v-47q-57 2 -113.5 3t-113.5 2.5t-113 2.5q-108 -2 -174.5 -4t-151.5 -4v47q99 5 147.5 27t64 66.5t15.5 125.5v981 q0 35 -39 45t-133 10q-119 0 -179 -14t-93 -68t-37 -174h-47v324h1257z" />
<glyph unicode="U" horiz-adv-x="1597" d="M1333 926v-381q0 -192 -53 -318t-171 -190t-310 -64q-140 0 -242 27.5t-169 86.5t-100.5 154.5t-33.5 235.5v496q0 219 -21 274q-18 48 -61.5 59t-114.5 11v49q96 -2 158 -4t133 -4q52 2 104 3t112 2.5t95 2.5v-49q-70 0 -114 -11t-62 -59q-18 -55 -18 -274v-510 q0 -205 90 -310.5t293 -105.5q210 0 317 108.5t107 317.5v453q0 233 -21 297q-19 59 -66.5 76.5t-123.5 17.5v49q80 -2 129 -4t108 -4q57 2 105.5 4t124.5 4v-49q-71 -2 -108.5 -13.5t-57.5 -60.5q-29 -74 -29 -317z" />
<glyph unicode="V" horiz-adv-x="1311" d="M627 -41l-441 1104q-32 85 -44 114t-36.5 63t-66.5 55t-100 22v49q96 -2 156 -4t132 -4q77 2 139 4t162 4v-49q-69 0 -114 -15t-45 -69q0 -31 30 -125.5t73 -209.5t52 -140l209 -527l195 480q55 146 104 296.5t49 209.5q0 67 -40.5 83.5t-118.5 16.5v49q76 -2 125.5 -4 t107.5 -4q48 2 77.5 3t59.5 2t78 3v-49q-62 0 -105.5 -27t-70.5 -71t-46 -95t-44 -120l-416 -1045h-61z" />
<glyph unicode="W" horiz-adv-x="1843" d="M1264 -41l-320 1057h-4l-162 -563q-38 -118 -89 -264.5t-79 -229.5h-69l-359 1112q-6 21 -19.5 64t-28.5 78.5t-28 50.5q-22 31 -53.5 40t-93.5 13v49q24 0 61.5 -1t74.5 -2t79.5 -2.5t79.5 -2.5q76 2 138.5 4t164.5 4v-49q-64 -6 -94.5 -10.5t-60 -25.5t-29.5 -64 q0 -23 12.5 -73.5t26.5 -101t22 -77.5l215 -711h4l322 1112h65l336 -1096h4l140 451q108 382 108 459q0 85 -38 106t-138 31v49q74 -2 120 -4t101 -4q55 2 98 4t115 4v-49q-69 0 -109.5 -39.5t-57 -84t-46.5 -149.5l-338 -1085h-71z" />
<glyph unicode="X" horiz-adv-x="1516" d="M827 745l453 -575q50 -65 94 -96t115 -31v-47q-48 2 -96 3t-96.5 2.5t-96.5 2.5q-104 -2 -168 -4t-141 -4v47q9 2 53.5 2.5t72 8.5t27.5 30q0 44 -108 182l-246 324l-137 -176q-83 -112 -128.5 -183t-45.5 -118q0 -27 16.5 -41.5t45 -20t58 -6.5t40.5 -2v-47 q-41 2 -82.5 3t-83 2.5t-82.5 2.5q-80 -2 -130 -4t-110 -4v47q94 8 150 48.5t127 131.5l321 414l-422 543q-54 71 -91 102t-107 35v49q23 0 58 -1l70 -2t75.5 -2.5t74.5 -2.5q76 2 139.5 4t163.5 4v-49q-72 -3 -111.5 -11t-39.5 -44q0 -24 25 -62t46 -70l263 -337l81 112 q19 26 56.5 76t68 96.5t50.5 88t20 69.5q0 37 -22 52.5t-72 22t-53 7.5v49q82 -2 133 -4t112 -4q55 2 98 4t115 4v-49q-57 -9 -84.5 -17t-56.5 -32q-27 -21 -75 -84.5t-87 -116.5z" />
<glyph unicode="Y" horiz-adv-x="1065" d="M631 543v-277q0 -106 10 -146t49 -54.5t144 -22.5v-47q-77 2 -141.5 4t-166.5 4q-104 -2 -169.5 -4t-143.5 -4v47q81 6 120.5 15.5t58 29.5t23.5 56t5 122v258l-189 328q-14 29 -65.5 127t-101.5 183.5t-82 117.5q-18 18 -34 23.5t-43 8t-42 5.5v49q23 0 58 -1l70 -2 t75.5 -2.5t74.5 -2.5q74 2 133.5 4t155.5 4v-49q-154 0 -154 -66q0 -24 7.5 -47t21 -49t25.5 -49l266 -498l131 211q203 340 203 412q0 51 -37.5 64.5t-110.5 21.5v49q74 -2 119.5 -4t99.5 -4q52 2 92.5 4t108.5 4v-49q-56 -4 -93.5 -28.5t-62 -58t-61.5 -97.5z" />
<glyph unicode="Z" horiz-adv-x="1229" d="M1153 377l-31 -377h-1050l784 1309h-297q-127 0 -198.5 -17t-116.5 -76.5t-62 -181.5h-55l20 332h975l-780 -1311h346q106 0 173 11.5t112.5 44.5t74 95.5t50.5 170.5h55z" />
<glyph unicode="[" horiz-adv-x="901" d="M754 1346h-297v-1590h297v-67h-432v1722h432v-65z" />
<glyph unicode="\" horiz-adv-x="532" d="M-168 1411h107l761 -1411h-106z" />
<glyph unicode="]" horiz-adv-x="901" d="M147 -311v67h297v1590h-297v65h433v-1722h-433z" />
<glyph unicode="^" horiz-adv-x="1065" d="M166 520h-96l391 838h143l391 -838h-104l-359 733z" />
<glyph unicode="_" horiz-adv-x="1024" d="M1024 -258h-1024v102h1024v-102z" />
<glyph unicode="`" horiz-adv-x="737" d="M616 1096h-75l-277 121q-71 30 -100 48.5t-29 61.5q0 30 20 52t50 22q21 0 43 -13t47 -34z" />
<glyph unicode="a" d="M532 987h60l315 -776q34 -85 47.5 -112t43.5 -44.5t87 -17.5v-41q-154 4 -231 4t-227 -4v41q70 0 102.5 8t32.5 39q0 29 -17 72l-71 188h-365l-26 -74q-26 -68 -36.5 -100.5t-10.5 -60.5q0 -47 36.5 -59.5t96.5 -12.5v-41q-120 4 -179 4q-58 0 -178 -4v41q70 0 111.5 44 t72 118.5t74.5 183.5zM340 399h309l-149 379z" />
<glyph unicode="b" d="M436 885v-316q0 -28 15.5 -33.5t83.5 -5.5q215 0 215 199q0 102 -56.5 147.5t-167.5 45.5q-63 0 -76.5 -5.5t-13.5 -31.5zM252 233v494q0 88 -8 124.5t-41.5 53.5t-110.5 17v43q148 -4 252 -4q45 0 126 2t112 2q93 0 173 -24.5t129.5 -75t49.5 -122.5q0 -69 -44.5 -114.5 t-98 -66.5t-127.5 -40v-4q90 -13 164 -34t137 -77t63 -153q0 -137 -102.5 -197.5t-298.5 -60.5q-35 0 -130 2t-153 2q-104 0 -252 -4v41q77 0 110.5 17.5t41.5 53.5t8 125zM436 455v-310q0 -62 38.5 -85t117.5 -23q112 0 171.5 50t59.5 165q0 132 -77 183.5t-246 51.5 q-44 0 -54 -4.5t-10 -27.5z" />
<glyph unicode="c" d="M1018 338v-342h-25l-37 84q-81 -49 -166 -78t-188 -29q-167 0 -280.5 59t-170.5 172t-57 275q0 150 67 266t188 179t278 63q158 0 311 -78l27 52h20l23 -291h-33q-22 86 -66 147t-110 95t-150 34q-123 0 -201 -67t-110.5 -173t-32.5 -229q0 -127 31 -230t107 -168 t200 -65q97 0 168 49t113.5 122.5t62.5 152.5h31z" />
<glyph unicode="d" horiz-adv-x="1251" d="M238 233v494q0 83 -8.5 122t-42 56t-109.5 17v43q156 -4 233 -4q52 0 152 2t139 2q126 0 228.5 -34t176.5 -98t113 -154.5t39 -203.5q0 -224 -152.5 -351.5t-404.5 -127.5q-45 0 -72.5 1t-55.5 1.5t-62 1t-82 0.5q-84 0 -252 -4v41q76 0 109.5 17t42 56t8.5 123zM422 872 v-698q0 -80 47.5 -108.5t132.5 -28.5q196 0 271 103t75 309q0 139 -38 245.5t-125.5 167t-227.5 60.5q-98 0 -116.5 -6.5t-18.5 -43.5z" />
<glyph unicode="e" horiz-adv-x="1024" d="M219 233v494q0 88 -8 124.5t-41.5 53.5t-110.5 17v43q168 -4 252 -4q198 0 576 4v-248h-35q-12 87 -35.5 129.5t-69.5 59t-131 16.5h-176q-37 0 -37 -27v-369q97 0 144.5 15t69 60t26.5 136h41q-4 -142 -4 -215q0 -69 4 -217h-41q-5 79 -26 116t-69.5 49.5t-144.5 12.5 v-303q0 -79 48.5 -111t154.5 -32q109 0 168 14.5t95 62.5t51 146h41l-13 -264q-418 4 -637 4q-84 0 -252 -4v41q77 0 110.5 17.5t41.5 53.5t8 125z" />
<glyph unicode="f" horiz-adv-x="909" d="M389 461v-228q0 -89 8 -125t41.5 -53.5t110.5 -17.5v-41q-168 4 -252 4t-252 -4v41q77 0 110.5 17.5t41.5 53.5t8 125v494q0 88 -8 124.5t-41.5 53.5t-110.5 17v43q168 -4 252 -4q199 0 575 4l21 -248h-35q-18 73 -44.5 116.5t-76 66t-135.5 22.5h-176q-37 0 -37 -27 v-393q134 0 183.5 36t56.5 160h41q-4 -130 -4 -200q0 -69 4 -215h-41q-5 78 -26.5 115t-71 50t-142.5 13z" />
<glyph unicode="g" horiz-adv-x="1251" d="M948 909l27 52h20l23 -291h-33q-22 86 -66 147t-110 95t-150 34q-123 0 -201 -67t-110.5 -173t-32.5 -229q0 -127 31 -230t107 -168t200 -65q130 0 189 64.5t59 152.5q0 69 -35 96t-110 27v41h461v-41q-73 0 -102.5 -19.5t-29.5 -80.5v-164q-60 -3 -107.5 -18.5 t-112.5 -43t-122 -41.5t-131 -14q-167 0 -280.5 59t-170.5 172t-57 275q0 151 67 266.5t188.5 178.5t277.5 63q158 0 311 -78z" />
<glyph unicode="h" horiz-adv-x="1366" d="M418 469v-236q0 -89 8 -125t41.5 -53.5t110.5 -17.5v-41q-168 4 -252 4t-252 -4v41q76 0 109.5 17.5t41.5 53.5t8 125v494q0 88 -8 124.5t-41.5 53.5t-109.5 17v43q168 -4 252 -4t252 4v-43q-77 0 -110.5 -17t-41.5 -53.5t-8 -124.5v-201h530v201q0 88 -8 124.5 t-41.5 53.5t-110.5 17v43q168 -4 252 -4t252 4v-43q-76 0 -109.5 -17t-41.5 -53.5t-8 -124.5v-494q0 -89 8 -125t41.5 -53.5t109.5 -17.5v-41q-168 4 -252 4t-252 -4v41q77 0 110.5 17.5t41.5 53.5t8 125v236h-530z" />
<glyph unicode="i" horiz-adv-x="682" d="M432 727v-494q0 -89 8 -125t41.5 -53.5t110.5 -17.5v-41q-168 4 -252 4t-252 -4v41q77 0 110.5 17.5t41.5 53.5t8 125v494q0 88 -8 124.5t-41.5 53.5t-110.5 17v43q168 -4 252 -4t252 4v-43q-77 0 -110.5 -17t-41.5 -53.5t-8 -124.5z" />
<glyph unicode="j" horiz-adv-x="682" d="M285 -111v838q0 88 -8 124.5t-41.5 53.5t-110.5 17v43q168 -4 252 -4t252 4v-43q-77 0 -110.5 -17t-41.5 -53.5t-8 -124.5v-858q0 -140 -63.5 -224.5t-153 -118.5t-178.5 -34q-128 0 -212.5 39.5t-84.5 99.5q0 32 18 55t49 23q40 0 54 -18.5t33.5 -63t48.5 -66.5t92 -22 q79 0 126 34.5t67 110.5t20 205z" />
<glyph unicode="k" d="M422 381v-148q0 -89 7 -125t36.5 -53.5t95.5 -17.5v-41q-126 4 -231 4q-84 0 -252 -4v41q76 0 109.5 17t42 56t8.5 123v494q0 83 -8.5 122t-42 56t-109.5 17v43q168 -4 252 -4q105 0 231 4v-43q-66 0 -95.5 -17t-36.5 -53.5t-7 -124.5v-285q14 12 65 59t122.5 121 t116 135.5t44.5 100.5q0 25 -18 37t-56 19t-41 8v43q132 -4 195 -4q66 0 192 4v-43q-73 -6 -118 -35t-97 -88l-194 -221l366 -461q33 -41 59.5 -57.5t82.5 -22.5v-41q-39 0 -117 2t-117 2q-38 0 -117 -2t-118 -2v41q59 0 91 6t32 31t-14.5 47.5t-43.5 56.5l-225 283z" />
<glyph unicode="l" horiz-adv-x="1024" d="M416 727v-477q0 -65 8 -105t32 -64.5t72.5 -34t128.5 -9.5q113 0 172.5 32.5t81.5 82t39 129.5h39l-10 -285q-222 4 -426 4q-195 0 -298 -1.5t-183 -2.5v41q76 0 109.5 17.5t41.5 53.5t8 125v494q0 88 -8 124.5t-41.5 53.5t-109.5 17v43q168 -4 252 -4q85 0 251 4v-43 q-76 0 -109.5 -17t-41.5 -53.5t-8 -124.5z" />
<glyph unicode="m" horiz-adv-x="1479" d="M741 238l334 727q120 -4 176 -4q48 0 170 4v-43q-168 0 -168 -150v-539q0 -89 8 -125t41.5 -53.5t110.5 -17.5v-41q-168 4 -252 4t-252 -4v41q77 0 110.5 17.5t41.5 53.5t8 125v572h-4l-379 -797h-22l-371 813h-4v-594q0 -83 14 -123.5t48 -53.5t108 -13v-41 q-132 4 -207 4q-63 0 -195 -4v41q74 0 108 13t48 53.5t14 123.5v545q0 150 -166 150v43q120 -4 168 -4q57 0 177 4z" />
<glyph unicode="n" horiz-adv-x="1251" d="M1022 733v-760h-61l-668 801h-4v-547q0 -83 14 -123.5t48 -53.5t108 -13v-41q-132 4 -207 4q-63 0 -195 -4v41q74 0 108 13t48 53.5t14 123.5v625q-53 66 -166 70v43q66 -4 127 -4q52 0 166 4l602 -740h5v508q0 83 -14 123t-49.5 53t-106.5 13v43q130 -4 194 -4 q73 0 209 4v-43q-72 0 -108 -13t-50 -53t-14 -123z" />
<glyph unicode="o" horiz-adv-x="1251" d="M1159 479q0 -150 -64.5 -264.5t-185.5 -178t-282 -63.5q-162 0 -284.5 63.5t-186.5 178t-64 264.5q0 151 64.5 266t186.5 178.5t284 63.5q161 0 282 -63.5t185.5 -178.5t64.5 -266zM948 479q0 126 -32 231.5t-103.5 170.5t-187.5 65q-166 0 -244 -134.5t-78 -332.5 q0 -197 78 -331t244 -134q116 0 187.5 64.5t103.5 169t32 231.5z" />
<glyph unicode="p" horiz-adv-x="1024" d="M418 444v-211q0 -89 8 -125t41.5 -53.5t110.5 -17.5v-41q-168 4 -252 4t-252 -4v41q76 0 109.5 17.5t41.5 53.5t8 125v494q0 88 -8 124.5t-41.5 53.5t-109.5 17v43q168 -4 252 -4q44 0 129 2t127 2q113 0 202.5 -27.5t142 -86.5t52.5 -149q0 -262 -447 -262q-71 0 -114 4 zM418 881v-396q90 -4 108 -4q123 0 182.5 51.5t59.5 172.5q0 119 -60 168t-182 49q-53 0 -80.5 -6.5t-27.5 -34.5z" />
<glyph unicode="q" horiz-adv-x="1251" d="M674 -51l-123 -47v-6q135 0 202.5 -28t161 -86t152.5 -58q53 0 67.5 21.5t22.5 56t23 34.5q37 0 37 -92q0 -94 -59.5 -149.5t-147.5 -55.5q-69 0 -120.5 38.5t-117.5 119t-111.5 119.5t-103.5 39q-48 0 -123 -43q-68 -45 -86 -45q-20 0 -33.5 11.5t-13.5 31.5q0 25 20 32 t67.5 14.5t70.5 22.5l149 92v4q-238 6 -377 143t-139 361q0 151 64.5 266t186.5 178.5t284 63.5q161 0 282 -63.5t185.5 -178.5t64.5 -266q0 -147 -60.5 -245t-163.5 -161.5t-261 -123.5zM625 946q-166 0 -244 -134.5t-78 -332.5q0 -197 78 -331t244 -134q116 0 187.5 64.5 t103.5 169t32 231.5q0 126 -32 231.5t-103.5 170.5t-187.5 65z" />
<glyph unicode="r" d="M233 233v494q0 88 -8 124.5t-41.5 53.5t-109.5 17v43q168 -4 252 -4q44 0 131 2t129 2q175 0 282 -58.5t107 -187.5q0 -99 -80 -168t-213 -78l264 -315q53 -64 93 -92.5t104 -28.5v-41q-94 4 -144 4q-47 0 -145 -4l-311 383q-29 35 -49 43t-76 8v-197q0 -89 8 -125 t41.5 -53.5t110.5 -17.5v-41q-168 4 -252 4t-252 -4v41q76 0 109.5 17.5t41.5 53.5t8 125zM418 881v-404h71q135 0 205 58.5t70 160.5q0 111 -62 168.5t-180 57.5q-50 0 -77 -6.5t-27 -34.5z" />
<glyph unicode="s" horiz-adv-x="909" d="M721 969l18 -277h-32q-49 102 -74 144.5t-74 76t-127 33.5q-73 0 -118.5 -41.5t-45.5 -107.5q0 -76 55 -112.5t196 -102t211.5 -132t70.5 -180.5q0 -76 -31 -134t-83.5 -92.5t-120.5 -52.5t-142 -18q-58 0 -130 26t-120 62l-49 -61h-19v305h39q11 -78 47.5 -145.5 t97.5 -106.5t140 -39q102 0 158.5 49t56.5 136t-64 130.5t-197 98.5t-202 117.5t-69 179.5q0 71 37.5 131t108.5 95.5t167 35.5q64 0 129.5 -23.5t118.5 -64.5l31 70h16z" />
<glyph unicode="t" d="M662 883v-650q0 -89 8 -125t41.5 -53.5t109.5 -17.5v-41q-168 4 -252 4t-252 -4v41q77 0 110.5 17.5t41.5 53.5t8 125v650q0 17 -14 22.5t-45 5.5h-117q-112 0 -156.5 -47t-50.5 -151h-41v252q370 -4 516 -4q148 0 516 4v-252h-41q-6 104 -50.5 151t-155.5 47h-117 q-30 0 -44.5 -5.5t-14.5 -22.5z" />
<glyph unicode="u" horiz-adv-x="1251" d="M215 303v424q0 88 -8 124.5t-41.5 53.5t-110.5 17v43q168 -4 252 -4t252 4v-43q-77 0 -110.5 -17t-41.5 -53.5t-8 -124.5v-426q0 -125 62 -195.5t203 -70.5q301 0 301 317v381q0 83 -14 123t-49.5 53t-106.5 13v43q130 -4 194 -4q75 0 207 4v-43q-71 0 -106.5 -13 t-49.5 -53t-14 -123v-371q0 -195 -96 -292t-305 -97q-410 0 -410 330z" />
<glyph unicode="v" d="M586 -27h-62l-331 803q-38 92 -65 119t-91 27v43q156 -4 235 -4q102 0 238 4v-43q-66 0 -101.5 -10t-35.5 -46q0 -24 9.5 -57.5t27 -81t18.5 -49.5l195 -496l184 426q76 171 76 232q0 29 -11 45.5t-28.5 22.5t-47 9t-46.5 5v43q86 -4 170 -4q58 0 182 4v-43 q-53 -1 -85.5 -23.5t-53.5 -59.5t-50 -104z" />
<glyph unicode="w" horiz-adv-x="1593" d="M1112 -27h-61l-250 713h-4l-254 -713h-62l-239 674q-5 15 -31 92t-43.5 107.5t-48.5 49.5t-82 26v43q152 -4 229 -4q82 0 242 4v-43q-60 0 -99.5 -12t-39.5 -56q0 -22 4.5 -43.5t9.5 -35t18 -56.5l170 -512h4l263 754h49l258 -754h4l158 436q45 125 45 180t-38 73 t-106 26v43q98 -4 170 -4q60 0 178 4v-43q-63 -3 -89.5 -31t-53.5 -96z" />
<glyph unicode="x" horiz-adv-x="1251" d="M532 446l-253 328q-54 68 -106.5 108t-121.5 40v43q106 -4 254 -4q80 0 240 4v-43q-121 0 -121 -37q0 -13 7.5 -25.5t17 -23.5t28.5 -35l174 -219l123 145q46 55 63 80t17 55q0 39 -23.5 47.5t-87.5 12.5v43q108 -4 181 -4q68 0 202 4v-43q-53 0 -94.5 -19t-70 -46 t-64.5 -69l-213 -249l289 -353q58 -71 109.5 -110t117.5 -39v-41q-106 4 -254 4q-81 0 -239 -4v41q60 0 90 7.5t30 29.5q0 18 -13 37t-40 49l-209 250l-139 -177q-44 -52 -62 -78.5t-18 -58.5q0 -38 24.5 -46.5t86.5 -12.5v-41q-108 4 -181 4q-68 0 -202 -4v41 q78 0 124.5 34.5t104.5 100.5z" />
<glyph unicode="y" d="M45 922v43q156 -4 236 -4q79 0 235 4v-43q-121 0 -121 -56q1 -22 9 -43.5t17.5 -40.5t35.5 -65l161 -273l177 267q15 24 31 49.5t24 45.5t8 42q0 26 -11 40t-27 19.5t-40 8.5t-45 6v43q120 -4 178 -4q57 0 181 4v-43q-66 -7 -101 -30.5t-73 -78.5l-271 -407v-173 q0 -89 8 -125t41.5 -53.5t110.5 -17.5v-41q-168 4 -252 4t-252 -4v41q77 0 110.5 17.5t41.5 53.5t8 125v142l-252 428q-36 60 -49 76t-34 23.5t-85 19.5z" />
<glyph unicode="z" horiz-adv-x="1024" d="M70 0l612 918h-266q-70 0 -124 -20.5t-89 -67t-39 -113.5h-41l20 244h779l-617 -920h268q146 0 223 45.5t105 185.5h37l-18 -272h-850z" />
<glyph unicode="{" horiz-adv-x="573" d="M358 301v-383q0 -67 12.5 -109t46 -70t91.5 -44v-6q-105 0 -166 24t-88 82t-27 164v373q0 43 -8 79.5t-25.5 66t-49 50t-72.5 23.5v8q66 14 98.5 38.5t44.5 67.5t12 113v332q0 112 22.5 175.5t81.5 94.5t171 31v-4q-78 -20 -111 -74.5t-33 -148.5v-353q0 -122 -33 -186 t-137 -86v-8q68 -12 105 -43.5t51 -81t14 -125.5z" />
<glyph unicode="|" horiz-adv-x="532" d="M199 0v1411h137v-1411h-137z" />
<glyph unicode="}" horiz-adv-x="573" d="M215 799v385q0 97 -32.5 148.5t-116.5 74.5v4q106 0 166 -23.5t87 -81t27 -163.5v-373q0 -89 37.5 -150.5t118.5 -68.5v-8q-93 -20 -124.5 -67t-31.5 -152v-334q0 -112 -22.5 -175.5t-82 -94.5t-169.5 -31v6q79 22 111 75t32 148v350q0 121 34 187t136 88v8 q-99 17 -134.5 76t-35.5 172z" />
<glyph unicode="~" horiz-adv-x="1065" d="M971 688l69 -76q-125 -229 -290 -229q-31 0 -66.5 11.5t-81 32.5t-86.5 40q-135 59 -215 59q-49 0 -87.5 -27.5t-60 -59.5t-61.5 -99l-67 76q37 69 77.5 122t93.5 87t121 34q49 0 110.5 -20.5t129.5 -50.5q39 -18 79 -36t73.5 -29t58.5 -11q63 0 115.5 52.5t87.5 123.5z " />
<glyph horiz-adv-x="1802" d="M213 487q23 0 36 -13t13 -36q0 -28 -48 -49.5t-71.5 -41.5t-23.5 -81q0 -65 49 -100t123 -35q2 1 4 1.5t4 0.5q70 0 138.5 26t113.5 75t45 114q0 50 -30 107t-88 143.5t-88 150.5t-30 130q0 201 197 376q89 81 204 138t218 57q70 0 117 -37t47 -106q0 -22 -6 -43 q88 80 202.5 136t219.5 56q70 0 116.5 -37t46.5 -106q0 -84 -59.5 -164t-146.5 -150q-72 -54 -145.5 -97.5t-123.5 -43.5q-19 0 -38 14t-19 33l2 4q0 40 70 66q110 36 206 110q73 59 109.5 113t36.5 92q0 31 -19 48.5t-53 17.5q-65 0 -150 -40t-147 -89q-76 -58 -134 -146.5 t-58 -173.5q0 -70 30.5 -134t90.5 -155.5t91 -151t31 -116.5q0 -92 -64 -164.5t-162 -111.5t-187 -39q-191 0 -262 110q-61 -54 -149 -85t-169 -31q-102 0 -170.5 33t-100.5 87t-32 115q2 89 61 156t152 67zM684 457q61 37 109 37q21 0 35 -14t14 -36q0 -19 -12.5 -29.5 t-40 -21t-46.5 -22t-32 -36t-13 -77.5q6 -57 54 -89t118 -32q2 1 4 1.5t5 0.5q70 0 138.5 26t113.5 75t45 114q0 50 -30 107t-88 143.5t-88 150.5t-30 130q0 69 23 135q-5 -4 -14 -14t-13 -13q-65 -51 -142.5 -96t-125.5 -45q-20 0 -39 14t-19 33l2 4q0 40 70 66 q108 35 207 110q72 60 108.5 113.5t36.5 91.5q0 31 -19 48.5t-52 17.5q-64 0 -148.5 -39.5t-148.5 -89.5q-78 -59 -135.5 -147t-57.5 -173q0 -55 20.5 -108t45 -94t76.5 -123t69 -119zM1300 86q0 60 68 212t151 281.5t115 129.5q16 0 27.5 -10.5t11.5 -28.5 q0 -15 -55.5 -101t-110.5 -193t-98 -251q-14 -50 -24 -69t-39 -19q-20 0 -33 15t-13 34zM1833 1104q24 0 36.5 -13.5t12.5 -35.5q0 -27 -21.5 -63.5t-51.5 -62.5t-56 -26q-47 0 -47 51q0 26 21 62t50.5 62t55.5 26z" />
<glyph unicode="&#xa1;" horiz-adv-x="655" d="M307 557h49q0 -130 4.5 -244.5t17 -235t34.5 -227.5q12 -54 21 -113.5t9 -101.5q0 -58 -27 -100.5t-83 -42.5q-50 0 -80.5 41.5t-30.5 93.5q0 79 33 223q55 278 55 596q0 36 -0.5 59.5t-1.5 51.5zM328 674q-47 0 -82 35t-35 82q0 46 32 82t79 36q49 0 85.5 -31.5 t36.5 -80.5q0 -50 -33.5 -86.5t-82.5 -36.5z" />
<glyph unicode="&#xa2;" horiz-adv-x="1065" d="M428 395l274 699q-30 10 -61 10q-156 0 -222.5 -128.5t-66.5 -301.5q0 -185 76 -279zM266 -23l113 289q-72 34 -124.5 95t-80 139.5t-27.5 158.5q0 137 65 251t177.5 178.5t249.5 64.5q10 -1 26 -1.5l32 -1t26 -1.5l92 229h76l-94 -243q47 -14 86 -46.5t39 -76.5 q0 -27 -19.5 -47.5t-48.5 -20.5q-40 0 -62 32.5t-28 78.5h-4l-277 -717q50 -31 90.5 -45t88.5 -14q67 0 124.5 36t120.5 99l41 -41q-61 -75 -150 -117.5t-188 -42.5q-79 0 -168 27l-100 -263h-76z" />
<glyph unicode="&#xa3;" horiz-adv-x="1065" d="M387 147q-38 20 -62.5 33.5t-54 24t-61.5 10.5q-50 0 -85.5 -26t-35.5 -74q0 -86 113 -86q123 0 186 118zM457 950l49 -202h323v-76h-307q29 -109 29 -195q0 -165 -66 -284q63 -26 141 -42t142 -16q171 0 262 152q0 -82 -29.5 -154t-86.5 -116t-132 -44q-41 0 -83 11 t-77.5 26t-79 39t-73.5 41l-35 23q-38 -62 -105.5 -101t-138.5 -39q-63 0 -108 38.5t-45 99.5q0 72 47.5 115.5t120.5 43.5q110 0 201 -53l10 119q0 74 -20 147.5t-58 188.5h-246v76h223q-23 85 -35 149t-12 121q0 83 27 153.5t76.5 119t119 74.5t152.5 26q161 0 258 -82 q27 -22 46.5 -55t19.5 -66q0 -34 -22.5 -61t-55.5 -27q-44 0 -64.5 29.5t-29.5 74.5q-18 65 -25 76q-19 30 -55.5 45.5t-77.5 15.5q-94 0 -148.5 -61.5t-54.5 -157.5q0 -77 23 -172z" />
<glyph unicode="&#xa4;" horiz-adv-x="1251" d="M504 987q105 0 168 -56t63 -140q0 -150 -190 -273q11 -13 47 -58.5t70 -82.5l92 -98q18 22 38.5 53.5t45.5 70.5q26 42 44.5 70.5t39 50t50 36.5t68.5 15q57 0 92 -30.5t35 -81.5q0 -39 -27.5 -67.5t-72.5 -28.5q-34 0 -59 18t-25 47q0 23 11.5 37.5t11.5 19.5 q0 19 -23 19q-17 0 -36.5 -27t-51.5 -83.5t-57 -92.5l-45 -72q27 -28 72.5 -74.5t90 -75t86.5 -28.5q39 0 63.5 18.5t51.5 49.5l31 -31q-30 -46 -94 -79t-148 -33q-74 0 -130.5 23.5t-104.5 72.5l-39 37q-81 -67 -156.5 -103.5t-163.5 -36.5q-112 0 -177.5 53.5t-65.5 143.5 q0 58 30.5 105.5t79.5 86t131 91.5l25 16q-32 49 -53 84.5t-38.5 85t-17.5 94.5q0 113 69.5 183.5t168.5 70.5zM268 229q0 -77 44.5 -128.5t115.5 -51.5q94 0 209 101q-47 50 -112 129t-124 151q-74 -56 -103.5 -94t-29.5 -107zM514 551l21 20q50 48 73 96.5t23 116.5 t-38 115t-93 47q-53 0 -91 -33t-38 -88q0 -59 28.5 -115.5t114.5 -158.5z" />
<glyph unicode="&#xa5;" horiz-adv-x="1065" d="M614 549h314v-76h-314v-270q0 -72 10.5 -100t51.5 -40t143 -20v-47q-71 2 -133 4t-158 4q-98 -2 -160.5 -4t-136.5 -4v47q104 8 145.5 20t52.5 39.5t11 100.5v270h-303v76h303v108l-53 88h-262v74h219l-156 273q-94 171 -139 202q-22 15 -76 23v49q84 -2 136.5 -4 t115.5 -4q65 2 118.5 4t139.5 4v-49q-155 0 -155 -66q0 -25 15 -63.5t41 -91t60 -114.5t37 -67l101 -172l145 232q119 190 119 256q0 52 -33.5 63.5t-112.5 22.5v49q68 -2 111 -4t92 -4q32 2 63.5 3t64 2.5t63.5 2.5v-49q-58 -11 -96.5 -50.5t-82.5 -111.5l-210 -336h237 v-74h-285l-43 -67v-129z" />
<glyph unicode="&#xa6;" horiz-adv-x="532" d="M199 0v565h137v-565h-137zM199 1411h137v-565h-137v565z" />
<glyph unicode="&#xa7;" horiz-adv-x="1024" d="M387 428l182 -104l148 -95q53 41 86 84t33 97q0 46 -35.5 87.5t-81.5 71t-103 60.5l-133 73l-147 95q-66 -36 -104.5 -73t-38.5 -95q0 -42 31 -79.5t69.5 -64t93.5 -57.5zM557 109l-108 57q-154 80 -243 170.5t-89 228.5q0 88 49.5 157t132.5 101q-39 34 -69.5 79t-47 95 t-16.5 103q0 98 43.5 169t120.5 106.5t174 35.5q75 0 156 -24.5t135.5 -77t54.5 -131.5q0 -52 -31 -87.5t-80 -35.5q-46 0 -76 29t-30 75q0 42 37 80t37 51q0 27 -39 44t-88 23.5t-74 6.5q-98 0 -170 -48.5t-72 -141.5q0 -84 58 -136t167 -116l111 -62q143 -79 228 -169.5 t85 -223.5q0 -58 -19 -105t-55 -86.5t-83 -74.5q65 -50 102 -122t37 -151q0 -107 -53 -187.5t-142.5 -121.5t-195.5 -41q-89 0 -181 32t-152 98t-60 159q0 51 33.5 91t82.5 40q45 0 79 -35.5t34 -81.5q0 -40 -39 -90q-10 -11 -19.5 -20.5t-15.5 -18.5t-6 -18q0 -54 90 -81.5 t162 -27.5q74 0 138.5 26t104.5 79t40 129q0 50 -21.5 87.5t-55 65.5t-67 46.5t-94.5 50.5z" />
<glyph unicode="&#xa8;" horiz-adv-x="778" d="M240 1149q-46 0 -75.5 32t-29.5 76t31.5 73.5t73.5 29.5q41 0 72.5 -30.5t31.5 -72.5q0 -44 -29.5 -76t-74.5 -32zM520 1149q-44 0 -74 32t-30 76q0 27 14.5 51.5t38.5 38t51 13.5q42 0 73.5 -30t31.5 -73q0 -44 -29.5 -76t-75.5 -32z" />
<glyph unicode="&#xa9;" horiz-adv-x="1516" d="M1444 680q0 -144 -53.5 -273.5t-148 -226.5t-222 -152t-266.5 -55t-262 54.5t-219 152.5t-148.5 226.5t-52.5 271.5t53 273.5t147.5 230t217.5 154.5t262 55q141 0 268 -54.5t221.5 -152t148.5 -228t54 -276.5zM1354 680q0 174 -81.5 315.5t-219 222t-301.5 80.5 q-123 0 -231 -48t-189 -134t-125.5 -198t-44.5 -240q0 -165 79 -307t215 -225t298 -83q124 0 231 48t187 132t128 198t54 239zM1051 1028v-209h-52q-2 100 -54 154.5t-152 54.5q-90 0 -153 -46t-94.5 -123.5t-31.5 -168.5q0 -88 32 -169t95.5 -134t151.5 -53q81 0 141.5 39 t91.5 110l41 -16q-35 -91 -121.5 -142t-187.5 -51q-167 0 -270 112.5t-103 285.5q0 121 49 213t138.5 143t205.5 51q128 0 273 -51z" />
<glyph unicode="&#xaa;" horiz-adv-x="696" d="M401 954v187l-64 -32t-59 -34.5t-49 -47.5t-20 -58q0 -34 19 -58t51 -24q30 0 64 19.5t58 47.5zM303 1141l88 43q10 7 10 26q0 74 -17.5 109t-80.5 35q-35 0 -69 -11.5t-35 -42.5q-5 -73 -54 -73q-22 0 -36.5 13.5t-14.5 35.5q0 64 72.5 89.5t146.5 25.5 q76 0 119.5 -16.5t62.5 -58.5t19 -118v-180q0 -125 37 -125q15 0 23 9.5t24 33.5l31 -21q-15 -34 -47.5 -62t-65.5 -28q-35 0 -65 24t-41 58q-102 -82 -195 -82q-52 0 -87.5 31.5t-35.5 83.5t32 88.5t70.5 57.5t108.5 55z" />
<glyph unicode="&#xab;" horiz-adv-x="983" d="M776 176l-299 281q32 27 94 81t93 80l120 117q3 2 10.5 9.5t14 12.5t14.5 5q6 0 11.5 -4.5t5.5 -12.5q0 -22 -39.5 -77.5t-73.5 -94.5l-94 -116l90 -113q39 -50 77 -104t38 -74q0 -8 -5.5 -14.5t-13.5 -6.5t-25.5 15.5zM442 176l-299 281q32 27 94 81t93 80l121 117 l11.5 11.5t12 10.5t14.5 5q7 0 12 -5t5 -12q0 -22 -39.5 -77.5t-73.5 -94.5l-94 -116l90 -113q115 -145 115 -178q0 -7 -6 -14t-13 -7q-6 0 -13.5 5t-15.5 13t-14 13z" />
<glyph unicode="&#xac;" horiz-adv-x="1065" d="M903 227v420h-835v96h929v-516h-94z" />
<glyph unicode="&#xad;" horiz-adv-x="682" d="M494 395h-494v140h494v-140z" />
<glyph unicode="&#xae;" horiz-adv-x="1516" d="M760 -27q-186 0 -344.5 95t-251 259t-92.5 355t92.5 354.5t250.5 259t345 95.5q139 0 265.5 -55.5t220 -153.5t146 -227t52.5 -273q0 -143 -53 -274t-146.5 -228.5t-220 -152t-264.5 -54.5zM760 63q165 0 300.5 82.5t214.5 225.5t79 311q0 128 -45 240.5t-126.5 196.5 t-190 131.5t-232.5 47.5q-164 0 -301.5 -82.5t-217 -224t-79.5 -309.5q0 -169 79.5 -311.5t217 -225t301.5 -82.5zM637 674v-254q0 -35 7 -49t26 -17.5t61 -5.5v-31h-291v31q50 5 62.5 7t21 13.5t8.5 41.5v591q0 42 -14.5 48.5t-79.5 11.5v31h342q248 0 248 -195 q0 -87 -61 -139.5t-148 -63.5v-4h4v-2h4q50 -4 84.5 -58.5t71.5 -140.5q46 -99 61 -118q26 -23 74 -23v-31h-86q-53 0 -82 23q-13 11 -27.5 35.5t-29 59.5t-21.5 52q-13 32 -26.5 64t-26 55t-28.5 39q-33 29 -119 29h-35zM637 711h53q232 0 232 176q0 85 -48 127.5 t-131 42.5h-53q-36 0 -44.5 -20t-8.5 -64v-262z" />
<glyph unicode="&#xaf;" horiz-adv-x="819" d="M668 1202h-533v84h533v-84z" />
<glyph unicode="&#xb0;" horiz-adv-x="819" d="M666 1130q0 -69 -35 -129t-94 -94.5t-127 -34.5q-69 0 -128 34.5t-93.5 94.5t-34.5 129q0 70 34.5 130t93 95.5t128.5 35.5q69 0 128 -36t93.5 -95.5t34.5 -129.5zM598 1130q0 79 -55 135t-135 56q-78 0 -132.5 -56.5t-54.5 -134.5t55 -133t134 -55q50 0 93.5 25t69 68 t25.5 95z" />
<glyph unicode="&#xb1;" horiz-adv-x="1065" d="M485 676v368h95v-368h417v-94h-417v-375h-95v375h-417v94h417zM68 0v94h929v-94h-929z" />
<glyph unicode="&#xb2;" horiz-adv-x="639" d="M156 662h434l-39 -177h-29l2 47q0 17 -7.5 21t-29.5 4h-385h-67q33 58 79 111t122 129q85 79 128 123t75 106.5t32 140.5q0 50 -19 95.5t-59 72.5t-96 27q-69 0 -116.5 -40t-47.5 -103q0 -48 34 -86.5t85 -38.5q34 0 74 34q-3 -26 -22.5 -47t-46.5 -33t-58 -12 q-72 0 -113 44t-41 112q0 93 81 146t187 53q78 0 144.5 -26.5t106.5 -79t40 -126.5q0 -66 -29.5 -118.5t-72 -89t-117.5 -89.5q-163 -114 -229 -200z" />
<glyph unicode="&#xb3;" horiz-adv-x="639" d="M330 987q-41 0 -57 -14.5t-43.5 -46t-49.5 -31.5q-24 0 -24 23q0 14 12.5 26.5t29.5 22t31 16.5q97 54 144 103t47 135q0 39 -13 68t-41 46t-73 17q-59 0 -100 -30.5t-41 -84.5q0 -33 22.5 -59.5t58.5 -26.5q42 0 78 31q-12 -39 -45.5 -60.5t-79.5 -21.5 q-49 0 -82.5 30.5t-33.5 75.5q0 85 81 135t177 50q53 0 105 -18t83 -54t31 -88q0 -78 -58 -124.5t-159 -92.5l2 2l4 -4q10 2 37 2q101 0 166 -49.5t65 -141.5q0 -83 -51 -147.5t-133 -99.5t-170 -35q-75 0 -145 28.5t-70 89.5q0 20 16.5 34t38.5 14q37 0 48.5 -15 t25.5 -50.5t39 -54t80 -18.5q69 0 110.5 31t59.5 83t18 114q0 190 -141 190z" />
<glyph unicode="&#xb4;" horiz-adv-x="737" d="M211 1096h-76l320 258q56 47 90 47q31 0 51 -21t20 -53q0 -42 -28.5 -60.5t-102.5 -49.5z" />
<glyph unicode="&#xb5;" horiz-adv-x="1188" d="M819 346v277v55q0 64 -9 95.5t-41.5 50t-104.5 28.5v41q42 -2 76.5 -4t93.5 -6q54 4 86 5.5t73 4.5v-666q0 -62 13 -100.5t63 -38.5q12 0 31 2t47 4v-47l-285 -74l-43 195q-57 -87 -149 -141t-193 -54q-70 0 -123 23q9 -94 37 -232q12 -68 18.5 -108t6.5 -72 q0 -58 -28 -101.5t-83 -43.5q-50 0 -80 42t-30 95v1047v55q0 65 -9 96t-42.5 49.5t-104.5 28.5v39q56 -2 92 -4t78 -4q42 2 74 4t86 4v-563q0 -126 32.5 -207.5t137.5 -81.5q78 0 142 42.5t101 113t37 151.5z" />
<glyph unicode="&#xb6;" horiz-adv-x="1229" d="M852 1022v-973q0 -219 22 -278q10 -22 28.5 -35t40 -17.5t62 -8t42.5 -3.5v-49h-328v1632h-94v-1632h-349v49q95 3 137.5 11t59.5 59q19 55 19 272v590q-19 0 -31 -0.5t-27 -1.5q-173 0 -269.5 91t-96.5 265q0 197 137 281t346 84h496v-49q-70 0 -113.5 -10.5 t-63.5 -53.5q-8 -18 -12 -55t-5 -76.5t-1 -91.5z" />
<glyph unicode="&#xb8;" horiz-adv-x="614" d="M315 0l-36 -104q72 0 128 -30t56 -95q0 -62 -47.5 -94.5t-110.5 -32.5q-51 0 -110.5 29.5t-59.5 76.5q0 17 11 29t26 12q31 0 47 -47q9 -28 26.5 -41.5t45.5 -13.5q35 0 59.5 20.5t24.5 54.5q0 48 -36.5 68.5t-86.5 20.5q-7 0 -22 -1t-27 -2l55 150h57z" />
<glyph unicode="&#xb9;" horiz-adv-x="639" d="M104 1303v24q102 5 166 17.5t129 46.5v-662q0 -88 9 -121q4 -13 17 -19.5t30.5 -10.5t44 -5t35.5 -2v-28q-33 0 -100 2t-101 2t-101 -2t-102 -2v28q121 0 137 29q13 25 13 129v440q0 86 -15 111q-14 23 -84 23h-78z" />
<glyph unicode="&#xba;" horiz-adv-x="737" d="M367 825q-78 0 -143.5 39t-104.5 105t-39 145q0 116 86 196.5t201 80.5q74 0 141.5 -37.5t108 -102t40.5 -141.5q0 -80 -38.5 -145.5t-105 -102.5t-146.5 -37zM377 862q82 0 116.5 73.5t34.5 166.5q0 61 -14 118t-49 95.5t-94 38.5q-88 0 -125 -68.5t-37 -167.5 q0 -108 36 -182t132 -74z" />
<glyph unicode="&#xbb;" horiz-adv-x="983" d="M207 739l299 -282q-90 -76 -187 -162l-120 -115q-4 -3 -16.5 -14.5t-22.5 -11.5q-5 0 -11 5t-6 11q0 21 38 75t75 97l94 115l-90 114q-17 23 -42.5 56t-49 70t-23.5 53q0 8 5 14t14 6q10 0 22 -10.5t21 -20.5zM541 739l299 -282q-90 -76 -187 -162l-121 -115 q-5 -4 -11 -10t-13 -11t-14 -5t-12 5t-5 11q0 21 38 75t75 97l94 115l-90 114q-115 145 -115 179q0 20 19 20q11 0 21 -9.5t22 -21.5z" />
<glyph unicode="&#xbc;" horiz-adv-x="1597" d="M1493 264h-154v-80q0 -88 11 -121q8 -24 39 -30t88 -6v-29q-33 0 -96 2t-93 2q-33 0 -101 -2t-102 -2v29q99 0 117 20q25 25 25 137v80h-357v43l437 533h32v-529h154v-47zM922 311h305v369h-4zM1389 1399l-979 -1399h-109l977 1399h111zM106 1311v24q95 5 160 17.5 t135 46.5v-662q0 -88 9 -121q4 -12 17 -18.5t30.5 -10.5t44 -5t35.5 -2v-29q-33 0 -100 2t-101 2t-101 -2t-102 -2v29q121 0 137 28q13 25 13 129v441q0 86 -15 110q-14 23 -84 23h-78z" />
<glyph unicode="&#xbd;" horiz-adv-x="1597" d="M1341 1399l-979 -1399h-108l977 1399h110zM59 1311v24q95 5 160 17.5t135 46.5v-662q0 -88 8 -121q5 -12 18 -18.5t30.5 -10.5t43.5 -5t35 -2v-29q-34 0 -100 2t-100 2t-101 -2t-102 -2v29q121 0 137 28q13 25 13 129v441q0 86 -15 110q-14 23 -84 23h-78zM1092 106h434 l-39 -176h-29l2 45q0 17 -7.5 21t-29.5 4h-385h-67q53 95 200 240q86 79 129 124t75 106.5t32 139.5q0 50 -19 95.5t-59 72.5t-96 27q-69 0 -116.5 -39.5t-47.5 -103.5q0 -48 33.5 -85.5t85.5 -37.5q34 0 74 34q-4 -39 -43 -66.5t-84 -27.5q-71 0 -112.5 44.5t-41.5 111.5 q0 94 81.5 146.5t186.5 52.5q80 0 145.5 -26t105.5 -78.5t40 -127.5q0 -66 -29.5 -118.5t-72 -89t-117.5 -89.5q-163 -114 -229 -199z" />
<glyph unicode="&#xbe;" horiz-adv-x="1597" d="M1493 264h-154v-80q0 -88 11 -121q8 -24 39 -30t88 -6v-29q-33 0 -96 2t-93 2q-33 0 -101 -2t-102 -2v29q99 0 117 20q25 25 25 137v80h-357v43l437 533h32v-529h154v-47zM922 311h305v369h-4zM1378 1399l-979 -1399h-108l977 1399h110zM330 995q-41 0 -57 -14.5 t-43.5 -46t-49.5 -31.5q-24 0 -24 23q0 14 12.5 26.5t29.5 22t31 16.5q95 53 143 103t48 135q0 38 -13 67.5t-41.5 46.5t-72.5 17q-59 0 -100 -30.5t-41 -84.5q0 -33 22.5 -59.5t58.5 -26.5q42 0 78 31q-12 -39 -46.5 -60.5t-78.5 -21.5q-49 0 -82.5 30.5t-33.5 75.5 q0 85 81 135t177 50q56 0 106 -16.5t81.5 -52.5t31.5 -91q0 -78 -58 -124.5t-159 -92.5l2 2l4 -4q10 2 37 2q101 0 166 -48.5t65 -142.5q0 -83 -51 -147.5t-133 -99.5t-170 -35q-75 0 -145 28.5t-70 90.5q0 19 16.5 33t38.5 14q37 0 48.5 -15t25.5 -50.5t39.5 -53.5 t79.5 -18q101 0 144.5 64t43.5 163q0 190 -141 190z" />
<glyph unicode="&#xbf;" horiz-adv-x="819" d="M524 549h56v-387h-125q-125 0 -201 -53t-76 -172q0 -73 30.5 -140.5t87.5 -110t130 -42.5q25 0 85.5 11t94.5 11q42 0 73.5 -20.5t31.5 -61.5q0 -45 -34.5 -68.5t-82.5 -23.5q-93 0 -181 41.5t-155.5 114t-106 164t-38.5 184.5q0 121 54 198t147 111.5t210 34.5v209z M539 909q47 0 82.5 -33.5t35.5 -82.5q0 -46 -32.5 -82.5t-77.5 -36.5q-50 0 -86.5 32.5t-36.5 79.5q0 34 15 62t40.5 44.5t59.5 16.5z" />
<glyph unicode="&#xc0;" horiz-adv-x="1352" d="M342 496l-18 -52q-15 -38 -40 -100t-42 -117t-17 -94q0 -31 16 -49.5t41 -26t54.5 -10t54.5 -4.5v-47q-56 2 -103.5 4t-121.5 4q-36 -2 -71 -3t-71 -2.5t-71 -2.5v47q84 9 125.5 40t71.5 107q95 223 169 396l314 813h69l414 -1051q16 -35 36 -84t37.5 -85.5t33.5 -57.5 q20 -27 48 -44t51.5 -22t76.5 -12v-47q-48 2 -96.5 3t-97.5 2.5t-97 2.5q-100 -2 -161.5 -4t-135.5 -4v47q73 3 115.5 16t42.5 64q0 53 -41 160l-80 213h-506zM369 563h452l-225 584zM924 1497h-76l-277 121q-22 8 -44.5 17.5t-40.5 21.5t-31 30t-13 42q0 29 20 51t50 22 q36 0 90 -47z" />
<glyph unicode="&#xc1;" horiz-adv-x="1352" d="M342 496l-18 -52q-15 -38 -40 -100t-42 -117t-17 -94q0 -31 16 -49.5t41 -26t54.5 -10t54.5 -4.5v-47q-56 2 -103.5 4t-121.5 4q-36 -2 -71 -3t-71 -2.5t-71 -2.5v47q84 9 125.5 40t71.5 107q95 223 169 396l314 813h69l414 -1051q16 -35 36 -84t37.5 -85.5t33.5 -57.5 q20 -27 48 -44t51.5 -22t76.5 -12v-47q-48 2 -96.5 3t-97.5 2.5t-97 2.5q-100 -2 -161.5 -4t-135.5 -4v47q73 3 115.5 16t42.5 64q0 53 -41 160l-80 213h-506zM369 563h452l-225 584zM518 1497h-76l320 258q54 47 90 47q32 0 52 -21.5t20 -51.5q0 -43 -29 -61.5t-102 -49.5z " />
<glyph unicode="&#xc2;" horiz-adv-x="1352" d="M342 496l-18 -52q-15 -38 -40 -100t-42 -117t-17 -94q0 -31 16 -49.5t41 -26t54.5 -10t54.5 -4.5v-47q-56 2 -103.5 4t-121.5 4q-36 -2 -71 -3t-71 -2.5t-71 -2.5v47q84 9 125.5 40t71.5 107q95 223 169 396l314 813h69l414 -1051q16 -35 36 -84t37.5 -85.5t33.5 -57.5 q20 -27 48 -44t51.5 -22t76.5 -12v-47q-48 2 -96.5 3t-97.5 2.5t-97 2.5q-100 -2 -161.5 -4t-135.5 -4v47q73 3 115.5 16t42.5 64q0 53 -41 160l-80 213h-506zM369 563h452l-225 584zM889 1497l-219 166l-228 -166h-61l233 305h113l225 -305h-63z" />
<glyph unicode="&#xc3;" horiz-adv-x="1352" d="M342 496l-18 -52q-15 -38 -40 -100t-42 -117t-17 -94q0 -31 16 -49.5t41 -26t54.5 -10t54.5 -4.5v-47q-56 2 -103.5 4t-121.5 4q-36 -2 -71 -3t-71 -2.5t-71 -2.5v47q84 9 125.5 40t71.5 107q95 223 169 396l314 813h69l414 -1051q16 -35 36 -84t37.5 -85.5t33.5 -57.5 q20 -27 48 -44t51.5 -22t76.5 -12v-47q-48 2 -96.5 3t-97.5 2.5t-97 2.5q-100 -2 -161.5 -4t-135.5 -4v47q73 3 115.5 16t42.5 64q0 53 -41 160l-80 213h-506zM369 563h452l-225 584zM436 1593h-55q13 71 66 127t120 56q32 0 64.5 -11t79.5 -32q36 -15 52.5 -21t37.5 -12 t37 -6q51 0 71 73h54q-8 -70 -56 -127q-54 -61 -116 -61q-22 0 -50.5 6.5t-53 16t-50.5 20.5q-97 41 -129 41q-46 0 -72 -70z" />
<glyph unicode="&#xc4;" horiz-adv-x="1352" d="M342 496l-18 -52q-15 -38 -40 -100t-42 -117t-17 -94q0 -31 16 -49.5t41 -26t54.5 -10t54.5 -4.5v-47q-56 2 -103.5 4t-121.5 4q-36 -2 -71 -3t-71 -2.5t-71 -2.5v47q84 9 125.5 40t71.5 107q95 223 169 396l314 813h69l414 -1051q16 -35 36 -84t37.5 -85.5t33.5 -57.5 q20 -27 48 -44t51.5 -22t76.5 -12v-47q-48 2 -96.5 3t-97.5 2.5t-97 2.5q-100 -2 -161.5 -4t-135.5 -4v47q73 3 115.5 16t42.5 64q0 53 -41 160l-80 213h-506zM369 563h452l-225 584zM526 1550q-45 0 -74.5 32t-29.5 77q0 43 31.5 72.5t72.5 29.5q40 0 72.5 -31t32.5 -71 q0 -45 -30 -77t-75 -32zM807 1550q-45 0 -75 32.5t-30 76.5q0 42 31.5 72t73.5 30q41 0 72.5 -30.5t31.5 -71.5q0 -45 -29 -77t-75 -32z" />
<glyph unicode="&#xc5;" horiz-adv-x="1352" d="M342 496l-18 -52q-15 -38 -40 -100t-42 -117t-17 -94q0 -31 16 -49.5t41 -26t54.5 -10t54.5 -4.5v-47q-56 2 -103.5 4t-121.5 4q-36 -2 -71 -3t-71 -2.5t-71 -2.5v47q84 9 125.5 40t71.5 107q95 223 169 396l314 813h69l414 -1051q16 -35 36 -84t37.5 -85.5t33.5 -57.5 q20 -27 48 -44t51.5 -22t76.5 -12v-47q-48 2 -96.5 3t-97.5 2.5t-97 2.5q-100 -2 -161.5 -4t-135.5 -4v47q73 3 115.5 16t42.5 64q0 53 -41 160l-80 213h-506zM369 563h452l-225 584zM674 1487q-76 0 -133.5 55.5t-57.5 132.5q0 78 55.5 132.5t133.5 54.5t136 -53t58 -130 q0 -82 -56 -137t-136 -55zM678 1546q47 0 83 38.5t36 88.5q0 56 -36 93.5t-89 37.5q-51 0 -85 -39t-34 -90q0 -52 36.5 -90.5t88.5 -38.5z" />
<glyph unicode="&#xc6;" horiz-adv-x="1802" d="M508 731h289v563h-4zM797 664h-322l-205 -400q-44 -78 -47 -123q0 -59 44.5 -75.5t117.5 -18.5v-51q-104 8 -233 8q-118 0 -213 -8v51q71 7 127 43q55 39 153 227l459 885q8 16 17 33.5t15.5 32t6.5 24.5q0 17 -64 17h-127v57h1092v-313h-47q-19 117 -61.5 171.5 t-110.5 69.5t-191 15h-147q-37 0 -45 -4.5t-8 -28.5v-51v-490q135 0 205 31.5t95.5 86t32.5 136.5h48q-2 -70 -3.5 -129t-5.5 -153q4 -84 5.5 -137.5t3.5 -118.5h-48q-10 80 -34.5 125.5t-65.5 68t-90.5 28t-142.5 5.5v-338q0 -72 6 -124t30 -85q35 -49 105 -62.5t158 -13.5 q87 2 151.5 12t111 37.5t77 84t39.5 145.5h47l-19 -334h-1114v47q71 0 115 12t61 60q21 55 21 274v271z" />
<glyph unicode="&#xc7;" horiz-adv-x="1393" d="M694 -150l47 125q-146 9 -263.5 59.5t-203 141.5t-132 216t-46.5 274q0 154 52.5 288t149 232t229 151.5t286.5 53.5q122 0 214 -30t202 -99l33 98h30l17 -408h-47q-12 85 -48 157.5t-92.5 124t-131 79.5t-161.5 28q-130 0 -223.5 -58.5t-149.5 -158.5t-80 -216.5 t-24 -241.5q0 -170 47.5 -316t156 -238t278.5 -92q135 0 225 59t141.5 158t85.5 238h37v-452h-27l-49 106q-100 -81 -209 -118.5t-241 -37.5l-27 -77q72 0 128 -29.5t56 -95.5q0 -62 -47.5 -94.5t-109.5 -32.5q-51 0 -110.5 29.5t-59.5 76.5q0 17 10.5 29t26.5 12 q19 0 29.5 -13.5t17.5 -33.5q9 -28 25.5 -41.5t45.5 -13.5q35 0 59.5 20.5t24.5 54.5q0 48 -36 68.5t-87 20.5q-8 0 -22 -1t-27 -2z" />
<glyph unicode="&#xc8;" horiz-adv-x="1270" d="M250 393v572q0 219 -21 274q-18 48 -61.5 59t-114.5 11v57h1018v-313h-47q-19 117 -61.5 171.5t-110 69.5t-190.5 15h-148q-37 0 -45 -4.5t-8 -28.5v-51v-490q135 0 205 31.5t96 85.5t33 137h47q-4 -188 -8 -282q4 -84 8 -256h-47q-15 105 -54.5 153.5t-101.5 61 t-178 12.5v-338q0 -72 6 -123t31 -86q25 -34 69.5 -51t89 -21t103.5 -4q87 2 151.5 12t111 37.5t77 84t39.5 145.5h47l-19 -334h-1114v47q71 0 115 12t61 60q21 55 21 274zM883 1497h-76l-277 121q-22 8 -44.5 17.5t-40.5 21.5t-31 30t-13 42q0 29 20 51t50 22q36 0 90 -47z " />
<glyph unicode="&#xc9;" horiz-adv-x="1270" d="M250 393v572q0 219 -21 274q-18 48 -61.5 59t-114.5 11v57h1018v-313h-47q-19 117 -61.5 171.5t-110 69.5t-190.5 15h-148q-37 0 -45 -4.5t-8 -28.5v-51v-490q135 0 205 31.5t96 85.5t33 137h47q-4 -188 -8 -282q4 -84 8 -256h-47q-15 105 -54.5 153.5t-101.5 61 t-178 12.5v-338q0 -72 6 -123t31 -86q25 -34 69.5 -51t89 -21t103.5 -4q87 2 151.5 12t111 37.5t77 84t39.5 145.5h47l-19 -334h-1114v47q71 0 115 12t61 60q21 55 21 274zM477 1497h-76l320 258q54 47 90 47q32 0 52 -21.5t20 -51.5q0 -43 -29 -61.5t-102 -49.5z" />
<glyph unicode="&#xca;" horiz-adv-x="1270" d="M250 393v572q0 219 -21 274q-18 48 -61.5 59t-114.5 11v57h1018v-313h-47q-19 117 -61.5 171.5t-110 69.5t-190.5 15h-148q-37 0 -45 -4.5t-8 -28.5v-51v-490q135 0 205 31.5t96 85.5t33 137h47q-4 -188 -8 -282q4 -84 8 -256h-47q-15 105 -54.5 153.5t-101.5 61 t-178 12.5v-338q0 -72 6 -123t31 -86q25 -34 69.5 -51t89 -21t103.5 -4q87 2 151.5 12t111 37.5t77 84t39.5 145.5h47l-19 -334h-1114v47q71 0 115 12t61 60q21 55 21 274zM848 1497l-219 166l-228 -166h-61l233 305h113l225 -305h-63z" />
<glyph unicode="&#xcb;" horiz-adv-x="1270" d="M250 393v572q0 219 -21 274q-18 48 -61.5 59t-114.5 11v57h1018v-313h-47q-19 117 -61.5 171.5t-110 69.5t-190.5 15h-148q-37 0 -45 -4.5t-8 -28.5v-51v-490q135 0 205 31.5t96 85.5t33 137h47q-4 -188 -8 -282q4 -84 8 -256h-47q-15 105 -54.5 153.5t-101.5 61 t-178 12.5v-338q0 -72 6 -123t31 -86q25 -34 69.5 -51t89 -21t103.5 -4q87 2 151.5 12t111 37.5t77 84t39.5 145.5h47l-19 -334h-1114v47q71 0 115 12t61 60q21 55 21 274zM485 1550q-45 0 -74.5 32t-29.5 77q0 43 31.5 72.5t72.5 29.5q40 0 72.5 -31t32.5 -71 q0 -45 -30 -77t-75 -32zM766 1550q-44 0 -74 32t-30 77q0 42 32 72t72 30q41 0 72.5 -30.5t31.5 -71.5q0 -45 -29 -77t-75 -32z" />
<glyph unicode="&#xcc;" horiz-adv-x="737" d="M264 389v584q0 219 -20 274q-18 47 -62 58.5t-114 11.5v49q98 -2 159.5 -4t134.5 -4q79 2 142.5 4t167.5 4v-49q-70 0 -114 -11.5t-62 -58.5q-21 -55 -21 -274v-584q0 -219 21 -274q17 -47 61.5 -59.5t114.5 -12.5v-47q-72 2 -133.5 4t-161.5 4q-52 -2 -103.5 -3l-103 -2 t-102.5 -3v47q70 0 114.5 12.5t61.5 59.5q20 55 20 274zM616 1497h-75l-277 121q-22 8 -44.5 17.5t-40.5 21.5t-31 30t-13 42q0 29 20 51t50 22q34 0 90 -47z" />
<glyph unicode="&#xcd;" horiz-adv-x="737" d="M264 389v584q0 219 -20 274q-18 47 -62 58.5t-114 11.5v49q98 -2 159.5 -4t134.5 -4q79 2 142.5 4t167.5 4v-49q-70 0 -114 -11.5t-62 -58.5q-21 -55 -21 -274v-584q0 -219 21 -274q17 -47 61.5 -59.5t114.5 -12.5v-47q-72 2 -133.5 4t-161.5 4q-52 -2 -103.5 -3l-103 -2 t-102.5 -3v47q70 0 114.5 12.5t61.5 59.5q20 55 20 274zM211 1497h-76l320 258q54 47 90 47q31 0 51 -21t20 -52q0 -43 -28.5 -61.5t-102.5 -49.5z" />
<glyph unicode="&#xce;" horiz-adv-x="799" d="M264 389v584q0 219 -20 274q-18 47 -62 58.5t-114 11.5v49q98 -2 159.5 -4t134.5 -4q79 2 142.5 4t167.5 4v-49q-70 0 -114 -11.5t-62 -58.5q-21 -55 -21 -274v-584q0 -219 21 -274q17 -47 61.5 -59.5t114.5 -12.5v-47q-72 2 -133.5 4t-161.5 4q-52 -2 -103.5 -3l-103 -2 t-102.5 -3v47q70 0 114.5 12.5t61.5 59.5q20 55 20 274zM582 1497l-220 166l-227 -166h-61l233 305h113l225 -305h-63z" />
<glyph unicode="&#xcf;" horiz-adv-x="758" d="M264 389v584q0 219 -20 274q-18 47 -62 58.5t-114 11.5v49q98 -2 159.5 -4t134.5 -4q79 2 142.5 4t167.5 4v-49q-70 0 -114 -11.5t-62 -58.5q-21 -55 -21 -274v-584q0 -219 21 -274q17 -47 61.5 -59.5t114.5 -12.5v-47q-72 2 -133.5 4t-161.5 4q-52 -2 -103.5 -3l-103 -2 t-102.5 -3v47q70 0 114.5 12.5t61.5 59.5q20 55 20 274zM219 1550q-45 0 -74.5 32t-29.5 77q0 43 31.5 72.5t72.5 29.5q26 0 50 -14t39.5 -38t15.5 -50q0 -45 -30 -77t-75 -32zM500 1550q-45 0 -75 32t-30 77q0 42 32 72t73 30t72.5 -30.5t31.5 -71.5q0 -45 -29 -77t-75 -32 z" />
<glyph unicode="&#xd0;" horiz-adv-x="1516" d="M461 750h205v-76h-205v-314v-67q0 -113 33 -162q52 -80 229 -80q128 0 213 43.5t132.5 120.5t65 177t17.5 226q0 164 -26.5 289t-88.5 214.5t-170.5 138.5t-269.5 49q-104 0 -123 -15q-12 -12 -12 -63v-481zM57 -4v47q71 0 115.5 12.5t58.5 59.5q19 55 19 274v285h-162 v76h162v219q0 219 -19 274q-15 47 -59 58.5t-115 11.5v53q86 -2 140 -4t118 -4q84 2 153 4t179 4q165 0 306 -50t242 -142.5t156.5 -226.5t55.5 -296q0 -210 -85.5 -357.5t-244.5 -222.5t-377 -75q-89 2 -165.5 4t-198.5 4q-92 -2 -150 -4t-129 -4z" />
<glyph unicode="&#xd1;" horiz-adv-x="1556" d="M268 430v764q-47 68 -93.5 95t-129.5 28v49q64 -2 105 -4t90 -4q41 2 74 4t87 4l865 -1067h4v575q0 234 -19 320q-9 41 -23.5 64t-35 33.5t-57.5 16t-66 9.5v49q76 -2 122.5 -4t102.5 -4q55 2 99 4t118 4v-49q-25 -2 -54 -5.5t-45 -10t-31 -24.5t-25 -50 q-6 -20 -11 -61.5t-8 -93.5t-4.5 -105t-1.5 -103v-891h-61q-75 93 -135 172l-801 979h-4v-694q0 -96 5.5 -176.5t24.5 -124.5q12 -27 30 -44t42 -25.5t52 -11.5t55 -5v-47q-39 2 -78.5 3t-79 2.5t-78.5 2.5q-37 -1 -75 -2.5t-76 -2.5t-76 -3v47q82 8 122.5 25.5t53.5 76.5 q10 48 13 120t3 165zM539 1593h-56q15 74 66.5 128.5t120.5 54.5q32 0 62.5 -10t80.5 -33q36 -15 52.5 -21t37.5 -12t37 -6q50 0 72 73h53q-6 -67 -55 -127q-56 -61 -117 -61q-23 0 -50.5 6.5t-52.5 16t-51 20.5q-94 41 -129 41q-47 0 -71 -70z" />
<glyph unicode="&#xd2;" horiz-adv-x="1679" d="M840 -27q-147 0 -283 51.5t-239.5 145t-162.5 224.5t-59 282q0 152 60.5 282t166.5 228t242 151.5t283 53.5t280.5 -52t235.5 -146t160.5 -222t58.5 -281q0 -207 -98.5 -371t-269 -255t-375.5 -91zM840 1333q-126 0 -221 -57t-154 -152.5t-86 -210t-27 -237.5 q0 -274 121 -460.5t379 -186.5q131 0 223.5 56t147.5 150t79.5 209t24.5 238q0 125 -26.5 239t-84.5 207.5t-151.5 149t-224.5 55.5zM1087 1497h-75l-277 121q-22 8 -44.5 17.5t-40.5 21.5t-31 30t-13 42q0 29 20 51t50 22q34 0 90 -47z" />
<glyph unicode="&#xd3;" horiz-adv-x="1679" d="M840 -27q-147 0 -283 51.5t-239.5 145t-162.5 224.5t-59 282q0 152 60.5 282t166.5 228t242 151.5t283 53.5t280.5 -52t235.5 -146t160.5 -222t58.5 -281q0 -207 -98.5 -371t-269 -255t-375.5 -91zM840 1333q-126 0 -221 -57t-154 -152.5t-86 -210t-27 -237.5 q0 -274 121 -460.5t379 -186.5q131 0 223.5 56t147.5 150t79.5 209t24.5 238q0 125 -26.5 239t-84.5 207.5t-151.5 149t-224.5 55.5zM682 1497h-76l320 258q54 47 90 47q31 0 51 -21t20 -52q0 -43 -28.5 -61.5t-102.5 -49.5z" />
<glyph unicode="&#xd4;" horiz-adv-x="1679" d="M840 -27q-147 0 -283 51.5t-239.5 145t-162.5 224.5t-59 282q0 152 60.5 282t166.5 228t242 151.5t283 53.5t280.5 -52t235.5 -146t160.5 -222t58.5 -281q0 -207 -98.5 -371t-269 -255t-375.5 -91zM840 1333q-126 0 -221 -57t-154 -152.5t-86 -210t-27 -237.5 q0 -274 121 -460.5t379 -186.5q131 0 223.5 56t147.5 150t79.5 209t24.5 238q0 125 -26.5 239t-84.5 207.5t-151.5 149t-224.5 55.5zM1053 1497l-219 166l-228 -166h-61l233 305h113l225 -305h-63z" />
<glyph unicode="&#xd5;" horiz-adv-x="1679" d="M840 -27q-147 0 -283 51.5t-239.5 145t-162.5 224.5t-59 282q0 152 60.5 282t166.5 228t242 151.5t283 53.5t280.5 -52t235.5 -146t160.5 -222t58.5 -281q0 -207 -98.5 -371t-269 -255t-375.5 -91zM840 1333q-126 0 -221 -57t-154 -152.5t-86 -210t-27 -237.5 q0 -274 121 -460.5t379 -186.5q131 0 223.5 56t147.5 150t79.5 209t24.5 238q0 125 -26.5 239t-84.5 207.5t-151.5 149t-224.5 55.5zM600 1593h-55q13 71 66 127t120 56q32 0 62.5 -10t80.5 -33q36 -15 52 -21t37 -12t38 -6q52 0 72 73h53q-6 -69 -55 -127q-56 -61 -117 -61 q-23 0 -50.5 6.5t-52 16t-50.5 20.5q-97 41 -129 41q-48 0 -72 -70z" />
<glyph unicode="&#xd6;" horiz-adv-x="1679" d="M840 -27q-147 0 -283 51.5t-239.5 145t-162.5 224.5t-59 282q0 152 60.5 282t166.5 228t242 151.5t283 53.5t280.5 -52t235.5 -146t160.5 -222t58.5 -281q0 -207 -98.5 -371t-269 -255t-375.5 -91zM840 1333q-126 0 -221 -57t-154 -152.5t-86 -210t-27 -237.5 q0 -274 121 -460.5t379 -186.5q131 0 223.5 56t147.5 150t79.5 209t24.5 238q0 125 -26.5 239t-84.5 207.5t-151.5 149t-224.5 55.5zM690 1550q-45 0 -74.5 32t-29.5 77q0 43 31.5 72.5t72.5 29.5q26 0 50 -14t39.5 -38t15.5 -50q0 -45 -30 -77t-75 -32zM971 1550 q-45 0 -75 32t-30 77q0 42 31.5 72t73.5 30q41 0 72.5 -30.5t31.5 -71.5q0 -45 -29 -77t-75 -32z" />
<glyph unicode="&#xd7;" horiz-adv-x="1065" d="M465 528l-359 361l66 69l360 -362l361 365l65 -70l-360 -363l363 -366l-68 -68l-361 365l-362 -365l-66 70z" />
<glyph unicode="&#xd8;" horiz-adv-x="1679" d="M201 -162l188 273q-94 66 -158.5 151.5t-99.5 188.5t-35 217q0 151 59.5 285t163.5 232t239.5 152t287.5 54q202 0 356 -91l135 199h107l-170 -244q76 -49 132.5 -110t97 -136t60 -158.5t19.5 -172.5q0 -150 -58.5 -279.5t-161 -224.5t-238 -148t-281.5 -53 q-222 0 -379 90l-156 -225h-108zM1200 1147l-674 -989q138 -129 301 -129q176 0 288 87.5t162 231t50 320.5q0 308 -127 479zM469 227l672 990q-57 57 -135 86.5t-162 29.5q-126 0 -221.5 -55t-155.5 -149t-87.5 -207.5t-27.5 -233.5q0 -273 117 -461z" />
<glyph unicode="&#xd9;" horiz-adv-x="1597" d="M1333 926v-381q0 -192 -53 -318t-171 -190t-310 -64q-140 0 -242 27.5t-169 86.5t-100.5 154.5t-33.5 235.5v496q0 219 -21 274q-18 48 -61.5 59t-114.5 11v49q96 -2 158 -4t133 -4q52 2 104 3t112 2.5t95 2.5v-49q-70 0 -114 -11t-62 -59q-18 -55 -18 -274v-510 q0 -205 90 -310.5t293 -105.5q210 0 317 108.5t107 317.5v453q0 233 -21 297q-19 59 -66.5 76.5t-123.5 17.5v49q80 -2 129 -4t108 -4q57 2 105.5 4t124.5 4v-49q-71 -2 -108.5 -13.5t-57.5 -60.5q-29 -74 -29 -317zM1047 1497h-76l-277 121q-22 8 -44.5 17.5t-40.5 21.5 t-31 30t-13 42q0 29 20 51t50 22q34 0 90 -47z" />
<glyph unicode="&#xda;" horiz-adv-x="1597" d="M1333 926v-381q0 -192 -53 -318t-171 -190t-310 -64q-140 0 -242 27.5t-169 86.5t-100.5 154.5t-33.5 235.5v496q0 219 -21 274q-18 48 -61.5 59t-114.5 11v49q96 -2 158 -4t133 -4q52 2 104 3t112 2.5t95 2.5v-49q-70 0 -114 -11t-62 -59q-18 -55 -18 -274v-510 q0 -205 90 -310.5t293 -105.5q210 0 317 108.5t107 317.5v453q0 233 -21 297q-19 59 -66.5 76.5t-123.5 17.5v49q80 -2 129 -4t108 -4q57 2 105.5 4t124.5 4v-49q-71 -2 -108.5 -13.5t-57.5 -60.5q-29 -74 -29 -317zM641 1497h-76l320 258q54 47 90 47q32 0 52 -21.5 t20 -51.5q0 -23 -11 -39.5t-32 -30.5t-41.5 -22t-47.5 -19z" />
<glyph unicode="&#xdb;" horiz-adv-x="1597" d="M1333 926v-381q0 -192 -53 -318t-171 -190t-310 -64q-140 0 -242 27.5t-169 86.5t-100.5 154.5t-33.5 235.5v496q0 219 -21 274q-18 48 -61.5 59t-114.5 11v49q96 -2 158 -4t133 -4q52 2 104 3t112 2.5t95 2.5v-49q-70 0 -114 -11t-62 -59q-18 -55 -18 -274v-510 q0 -205 90 -310.5t293 -105.5q210 0 317 108.5t107 317.5v453q0 233 -21 297q-19 59 -66.5 76.5t-123.5 17.5v49q80 -2 129 -4t108 -4q57 2 105.5 4t124.5 4v-49q-71 -2 -108.5 -13.5t-57.5 -60.5q-29 -74 -29 -317zM1012 1497l-219 166l-228 -166h-61l233 305h113l225 -305 h-63z" />
<glyph unicode="&#xdc;" horiz-adv-x="1597" d="M1333 926v-381q0 -192 -53 -318t-171 -190t-310 -64q-140 0 -242 27.5t-169 86.5t-100.5 154.5t-33.5 235.5v496q0 219 -21 274q-18 48 -61.5 59t-114.5 11v49q96 -2 158 -4t133 -4q52 2 104 3t112 2.5t95 2.5v-49q-70 0 -114 -11t-62 -59q-18 -55 -18 -274v-510 q0 -205 90 -310.5t293 -105.5q210 0 317 108.5t107 317.5v453q0 233 -21 297q-19 59 -66.5 76.5t-123.5 17.5v49q80 -2 129 -4t108 -4q57 2 105.5 4t124.5 4v-49q-71 -2 -108.5 -13.5t-57.5 -60.5q-29 -74 -29 -317zM649 1550q-45 0 -74.5 32t-29.5 77q0 43 31.5 72.5 t72.5 29.5q26 0 50 -14t39.5 -38t15.5 -50q0 -45 -30 -77t-75 -32zM930 1550q-45 0 -75 32t-30 77q0 42 31.5 72t73.5 30q41 0 72.5 -30.5t31.5 -71.5q0 -45 -29 -77t-75 -32z" />
<glyph unicode="&#xdd;" horiz-adv-x="1065" d="M631 543v-277q0 -106 10 -146t49 -54.5t144 -22.5v-47q-77 2 -141.5 4t-166.5 4q-104 -2 -169.5 -4t-143.5 -4v47q81 6 120.5 15.5t58 29.5t23.5 56t5 122v258l-189 328q-14 29 -65.5 127t-101.5 183.5t-82 117.5q-18 18 -34 23.5t-43 8t-42 5.5v49q23 0 58 -1l70 -2 t75.5 -2.5t74.5 -2.5q74 2 133.5 4t155.5 4v-49q-154 0 -154 -66q0 -24 7.5 -47t21 -49t25.5 -49l266 -498l131 211q203 340 203 412q0 51 -37.5 64.5t-110.5 21.5v49q74 -2 119.5 -4t99.5 -4q52 2 92.5 4t108.5 4v-49q-56 -4 -93.5 -28.5t-62 -58t-61.5 -97.5zM424 1497 h-76l320 258q54 47 90 47q31 0 51 -21t20 -52q0 -43 -28.5 -61.5t-102.5 -49.5z" />
<glyph unicode="&#xde;" horiz-adv-x="1188" d="M250 389v582q0 221 -19 276q-16 47 -59.5 58.5t-114.5 11.5v49q102 -2 167.5 -4t121.5 -4q52 2 103.5 3t103 2.5t102.5 2.5v-49q-70 0 -114 -11t-62 -59q-18 -50 -18 -143v-57q69 2 198 6q124 -5 230 -41.5t173.5 -114.5t67.5 -203q0 -108 -45.5 -180.5t-124.5 -115.5 t-172 -59.5t-190 -16.5q-14 0 -39 1.5t-46.5 2.5t-32 1.5t-19.5 0.5q2 -81 6 -133.5t14 -79.5q12 -30 32 -44t51 -20t58.5 -6.5t55.5 -1.5v-47q-80 2 -147 4t-173 4q-49 -1 -99 -2.5t-92 -2.5t-110 -3v47q71 0 115.5 12.5t58.5 59.5q19 55 19 274zM461 889v-512 q20 -1 40 -2.5t43 -3.5t36 -2q106 0 176 31.5t104.5 101t34.5 180.5q0 153 -72 229t-221 76q-73 -2 -99.5 -6.5t-34 -23t-7.5 -68.5z" />
<glyph unicode="&#xdf;" horiz-adv-x="1819" d="M721 969l18 -277h-32q-49 102 -74 144.5t-74 76t-127 33.5q-73 0 -118.5 -41.5t-45.5 -107.5q0 -76 55 -112.5t196 -102t211.5 -132t70.5 -180.5q0 -76 -31 -134t-83.5 -92.5t-120.5 -52.5t-142 -18q-58 0 -130 26t-120 62l-49 -61h-19v305h39q11 -78 47.5 -145.5 t97.5 -106.5t140 -39q102 0 158.5 49t56.5 136t-64 130.5t-197 98.5t-202 117.5t-69 179.5q0 71 37.5 131t108.5 95.5t167 35.5q64 0 129.5 -23.5t118.5 -64.5l31 70h16zM1630 969l19 -277h-33q-49 102 -74 144.5t-74 76t-127 33.5q-73 0 -118 -42t-45 -107q0 -76 55 -112.5 t195 -101.5t211 -132t71 -181q0 -101 -53 -168.5t-138.5 -98t-185.5 -30.5q-58 0 -130 26t-120 62l-49 -61h-18v305h39q16 -123 92 -207t192 -84q103 0 159 49t56 136t-64 130.5t-197 98.5t-202 117.5t-69 179.5q0 111 85.5 186.5t227.5 75.5q64 0 130.5 -24t117.5 -64 l31 70h16z" />
<glyph unicode="&#xe0;" d="M532 987h60l315 -776q34 -85 47.5 -112t43.5 -44.5t87 -17.5v-41q-154 4 -231 4t-227 -4v41q70 0 102.5 8t32.5 39q0 29 -17 72l-71 188h-365l-26 -74q-26 -68 -36.5 -100.5t-10.5 -60.5q0 -47 36.5 -59.5t96.5 -12.5v-41q-120 4 -179 4q-58 0 -178 -4v41q70 0 111.5 44 t72 118.5t74.5 183.5zM340 399h309l-149 379zM817 1096h-76l-276 121q-71 30 -100 48.5t-29 61.5q0 30 20 52t50 22q31 0 90 -47z" />
<glyph unicode="&#xe1;" d="M532 987h60l315 -776q34 -85 47.5 -112t43.5 -44.5t87 -17.5v-41q-154 4 -231 4t-227 -4v41q70 0 102.5 8t32.5 39q0 29 -17 72l-71 188h-365l-26 -74q-26 -68 -36.5 -100.5t-10.5 -60.5q0 -47 36.5 -59.5t96.5 -12.5v-41q-120 4 -179 4q-58 0 -178 -4v41q70 0 111.5 44 t72 118.5t74.5 183.5zM340 399h309l-149 379zM412 1096h-76l319 258q59 47 90 47q32 0 52 -21.5t20 -52.5q0 -42 -29 -60.5t-102 -49.5z" />
<glyph unicode="&#xe2;" d="M532 987h60l315 -776q34 -85 47.5 -112t43.5 -44.5t87 -17.5v-41q-154 4 -231 4t-227 -4v41q70 0 102.5 8t32.5 39q0 29 -17 72l-71 188h-365l-26 -74q-26 -68 -36.5 -100.5t-10.5 -60.5q0 -47 36.5 -59.5t96.5 -12.5v-41q-120 4 -179 4q-58 0 -178 -4v41q70 0 111.5 44 t72 118.5t74.5 183.5zM340 399h309l-149 379zM782 1096l-219 166l-227 -166h-62l234 305h113l225 -305h-64z" />
<glyph unicode="&#xe3;" d="M532 987h60l315 -776q34 -85 47.5 -112t43.5 -44.5t87 -17.5v-41q-154 4 -231 4t-227 -4v41q70 0 102.5 8t32.5 39q0 29 -17 72l-71 188h-365l-26 -74q-26 -68 -36.5 -100.5t-10.5 -60.5q0 -47 36.5 -59.5t96.5 -12.5v-41q-120 4 -179 4q-58 0 -178 -4v41q70 0 111.5 44 t72 118.5t74.5 183.5zM340 399h309l-149 379zM350 1192h-55q8 44 35 87t66 69t85 26q52 0 144 -43q28 -12 48.5 -20t41.5 -13.5t37 -5.5q51 0 71 74h54q-8 -70 -56 -127q-52 -61 -116 -61q-27 0 -50 5t-50.5 16t-53.5 22q-97 41 -129 41q-48 0 -72 -70z" />
<glyph unicode="&#xe4;" d="M532 987h60l315 -776q34 -85 47.5 -112t43.5 -44.5t87 -17.5v-41q-154 4 -231 4t-227 -4v41q70 0 102.5 8t32.5 39q0 29 -17 72l-71 188h-365l-26 -74q-26 -68 -36.5 -100.5t-10.5 -60.5q0 -47 36.5 -59.5t96.5 -12.5v-41q-120 4 -179 4q-58 0 -178 -4v41q70 0 111.5 44 t72 118.5t74.5 183.5zM340 399h309l-149 379zM440 1149q-45 0 -74.5 32t-29.5 76t31.5 73.5t72.5 29.5q40 0 72.5 -30.5t32.5 -72.5q0 -44 -30 -76t-75 -32zM721 1149q-45 0 -75 32.5t-30 75.5q0 27 15.5 51.5t39.5 38t50 13.5q42 0 73 -30t31 -73q0 -44 -29 -76t-75 -32z " />
<glyph unicode="&#xe5;" d="M532 987h60l315 -776q34 -85 47.5 -112t43.5 -44.5t87 -17.5v-41q-154 4 -231 4t-227 -4v41q70 0 102.5 8t32.5 39q0 29 -17 72l-71 188h-365l-26 -74q-26 -68 -36.5 -100.5t-10.5 -60.5q0 -47 36.5 -59.5t96.5 -12.5v-41q-120 4 -179 4q-58 0 -178 -4v41q70 0 111.5 44 t72 118.5t74.5 183.5zM340 399h309l-149 379zM567 1085q-51 0 -94.5 26t-69.5 69.5t-26 93.5t26 93.5t69.5 68t92.5 24.5t95 -24t73 -65.5t27 -92.5q0 -84 -55.5 -138.5t-137.5 -54.5zM571 1145q50 0 84.5 38t34.5 89q0 54 -36 92.5t-89 38.5q-50 0 -84.5 -39.5t-34.5 -89.5 q0 -52 36.5 -90.5t88.5 -38.5z" />
<glyph unicode="&#xe6;" horiz-adv-x="1479" d="M670 422h-297l-152 -244q-26 -45 -26 -72q0 -35 23.5 -45t88.5 -24v-41q-90 4 -137 4q-54 0 -160 -4v41q44 5 74.5 37t62.5 84l431 690q24 38 24 47q0 17 -47 20l-92 7v43q200 -4 299 -4q199 0 575 4v-248h-34q-12 87 -35.5 129.5t-69.5 59t-131 16.5h-176q-37 0 -37 -27 v-369q70 0 114 8t70 29.5t39.5 63.5t16.5 110h41q-5 -178 -5 -215q0 -32 5 -217h-41q-5 79 -26.5 116t-70.5 49.5t-143 12.5v-303q0 -80 47 -111.5t154 -31.5q108 0 167 14.5t95 62.5t51 146h41l-12 -264q-414 4 -635 4q-84 0 -252 -4v41q77 0 110.5 17.5t41.5 53.5t8 125 v189zM670 477v410h-6l-256 -410h262z" />
<glyph unicode="&#xe7;" d="M1018 338v-342h-25l-37 84q-81 -49 -166 -78t-188 -29q-35 0 -49 4l-29 -81q72 0 128.5 -30t56.5 -95q0 -62 -47.5 -94.5t-110.5 -32.5q-51 0 -110.5 29.5t-59.5 76.5q0 17 10.5 29t26.5 12q22 0 30 -12t17.5 -39t24.5 -41t47 -14q35 0 59.5 20.5t24.5 54.5 q0 52 -36 73.5t-87 21.5q-17 0 -27 -0.5t-22 -1.5l49 129q-199 25 -301.5 153t-102.5 344q0 150 67 266t188 179t278 63q158 0 311 -78l27 52h20l23 -291h-33q-22 86 -66 147t-110 95t-150 34q-123 0 -201 -67t-110.5 -173t-32.5 -229q0 -127 31 -230t107 -168t200 -65 q97 0 168 49t113.5 122.5t62.5 152.5h31z" />
<glyph unicode="&#xe8;" horiz-adv-x="1024" d="M219 233v494q0 88 -8 124.5t-41.5 53.5t-110.5 17v43q168 -4 252 -4q198 0 576 4v-248h-35q-12 87 -35.5 129.5t-69.5 59t-131 16.5h-176q-37 0 -37 -27v-369q97 0 144.5 15t69 60t26.5 136h41q-4 -142 -4 -215q0 -69 4 -217h-41q-5 79 -26 116t-69.5 49.5t-144.5 12.5 v-303q0 -79 48.5 -111t154.5 -32q109 0 168 14.5t95 62.5t51 146h41l-13 -264q-418 4 -637 4q-84 0 -252 -4v41q77 0 110.5 17.5t41.5 53.5t8 125zM760 1096h-76l-276 121q-65 26 -97 46.5t-32 63.5q0 30 19.5 52t49.5 22q34 0 90 -47z" />
<glyph unicode="&#xe9;" horiz-adv-x="1024" d="M219 233v494q0 88 -8 124.5t-41.5 53.5t-110.5 17v43q168 -4 252 -4q198 0 576 4v-248h-35q-12 87 -35.5 129.5t-69.5 59t-131 16.5h-176q-37 0 -37 -27v-369q97 0 144.5 15t69 60t26.5 136h41q-4 -142 -4 -215q0 -69 4 -217h-41q-5 79 -26 116t-69.5 49.5t-144.5 12.5 v-303q0 -79 48.5 -111t154.5 -32q109 0 168 14.5t95 62.5t51 146h41l-13 -264q-418 4 -637 4q-84 0 -252 -4v41q77 0 110.5 17.5t41.5 53.5t8 125zM354 1096h-75l319 258q34 26 51.5 36.5t38.5 10.5q32 0 52 -21.5t20 -52.5q0 -42 -29 -60.5t-102 -49.5z" />
<glyph unicode="&#xea;" horiz-adv-x="1024" d="M219 233v494q0 88 -8 124.5t-41.5 53.5t-110.5 17v43q168 -4 252 -4q198 0 576 4v-248h-35q-12 87 -35.5 129.5t-69.5 59t-131 16.5h-176q-37 0 -37 -27v-369q97 0 144.5 15t69 60t26.5 136h41q-4 -142 -4 -215q0 -69 4 -217h-41q-5 79 -26 116t-69.5 49.5t-144.5 12.5 v-303q0 -79 48.5 -111t154.5 -32q109 0 168 14.5t95 62.5t51 146h41l-13 -264q-418 4 -637 4q-84 0 -252 -4v41q77 0 110.5 17.5t41.5 53.5t8 125zM725 1096l-219 166l-227 -166h-62l234 305h112l225 -305h-63z" />
<glyph unicode="&#xeb;" horiz-adv-x="1024" d="M219 233v494q0 88 -8 124.5t-41.5 53.5t-110.5 17v43q168 -4 252 -4q198 0 576 4v-248h-35q-12 87 -35.5 129.5t-69.5 59t-131 16.5h-176q-37 0 -37 -27v-369q97 0 144.5 15t69 60t26.5 136h41q-4 -142 -4 -215q0 -69 4 -217h-41q-5 79 -26 116t-69.5 49.5t-144.5 12.5 v-303q0 -79 48.5 -111t154.5 -32q109 0 168 14.5t95 62.5t51 146h41l-13 -264q-418 4 -637 4q-84 0 -252 -4v41q77 0 110.5 17.5t41.5 53.5t8 125zM362 1149q-45 0 -74.5 32t-29.5 76t31.5 73.5t72.5 29.5q40 0 72.5 -30.5t32.5 -72.5q0 -44 -30 -76t-75 -32zM643 1149 q-44 0 -74 32t-30 76q0 27 14.5 51.5t38.5 38t51 13.5q42 0 73.5 -30t31.5 -73q0 -44 -29.5 -76t-75.5 -32z" />
<glyph unicode="&#xec;" horiz-adv-x="711" d="M432 727v-494q0 -89 8 -125t41.5 -53.5t110.5 -17.5v-41q-168 4 -252 4t-252 -4v41q77 0 110.5 17.5t41.5 53.5t8 125v494q0 88 -8 124.5t-41 54.5t-111 18v41q168 -4 252 -4t252 4v-41q-78 0 -111 -18t-41 -54.5t-8 -124.5zM590 1096h-76l-276 121q-65 26 -97 46.5 t-32 63.5q0 30 19.5 52t49.5 22q34 0 90 -47z" />
<glyph unicode="&#xed;" horiz-adv-x="711" d="M432 727v-494q0 -89 8 -125t41.5 -53.5t110.5 -17.5v-41q-168 4 -252 4t-252 -4v41q77 0 110.5 17.5t41.5 53.5t8 125v494q0 88 -8 124.5t-41 54.5t-111 18v41q168 -4 252 -4t252 4v-41q-78 0 -111 -18t-41 -54.5t-8 -124.5zM184 1096h-75l319 258q34 26 51.5 36.5 t38.5 10.5q32 0 52 -21.5t20 -52.5q0 -42 -29 -60.5t-102 -49.5z" />
<glyph unicode="&#xee;" horiz-adv-x="772" d="M432 727v-494q0 -89 8 -125t41.5 -53.5t110.5 -17.5v-41q-168 4 -252 4t-252 -4v41q77 0 110.5 17.5t41.5 53.5t8 125v494q0 88 -8 124.5t-41 54.5t-111 18v41q168 -4 252 -4t252 4v-41q-78 0 -111 -18t-41 -54.5t-8 -124.5zM555 1096l-219 166l-227 -166h-62l234 305 h112l225 -305h-63z" />
<glyph unicode="&#xef;" horiz-adv-x="731" d="M432 727v-494q0 -89 8 -125t41.5 -53.5t110.5 -17.5v-41q-168 4 -252 4t-252 -4v41q77 0 110.5 17.5t41.5 53.5t8 125v494q0 88 -8 124.5t-41 54.5t-111 18v41q168 -4 252 -4t252 4v-41q-78 0 -111 -18t-41 -54.5t-8 -124.5zM193 1149q-46 0 -75.5 32t-29.5 76t31.5 73.5 t73.5 29.5q41 0 72.5 -30.5t31.5 -72.5q0 -44 -29.5 -76t-74.5 -32zM473 1149q-44 0 -74 32t-30 76q0 27 14.5 51.5t38.5 38t51 13.5q42 0 73.5 -30t31.5 -73q0 -44 -29.5 -76t-75.5 -32z" />
<glyph unicode="&#xf0;" horiz-adv-x="1251" d="M238 535h-160v51h160v141q0 83 -8.5 122t-42 56t-109.5 17v43q156 -4 233 -4q52 0 152 2t139 2q126 0 228.5 -34t176.5 -98t113 -154.5t39 -203.5q0 -224 -152.5 -351.5t-404.5 -127.5q-45 0 -72.5 1t-55.5 1.5t-62 1t-82 0.5q-84 0 -252 -4v41q76 0 109.5 17t42 56 t8.5 123v302zM422 586h299v-51h-299v-361q0 -80 47.5 -108.5t132.5 -28.5q196 0 271 103t75 309q0 139 -38 245.5t-125.5 167t-227.5 60.5q-98 0 -116.5 -6.5t-18.5 -43.5v-286z" />
<glyph unicode="&#xf1;" horiz-adv-x="1251" d="M1022 733v-760h-61l-668 801h-4v-547q0 -83 14 -123.5t48 -53.5t108 -13v-41q-132 4 -207 4q-63 0 -195 -4v41q74 0 108 13t48 53.5t14 123.5v625q-53 66 -166 70v43q66 -4 127 -4q52 0 166 4l602 -740h5v508q0 83 -14 123t-49.5 53t-106.5 13v43q130 -4 194 -4 q73 0 209 4v-43q-72 0 -108 -13t-50 -53t-14 -123zM387 1192h-55q8 44 35 87t66 69t85 26q37 0 71 -12t73 -31q29 -12 48 -19.5t40 -13.5t38 -6q52 0 72 74h53q-6 -69 -55 -127q-54 -61 -117 -61q-27 0 -49.5 5t-50 16t-53.5 22q-97 41 -129 41q-48 0 -72 -70z" />
<glyph unicode="&#xf2;" horiz-adv-x="1251" d="M1159 479q0 -150 -64.5 -264.5t-185.5 -178t-282 -63.5q-162 0 -284.5 63.5t-186.5 178t-64 264.5q0 151 64.5 266t186.5 178.5t284 63.5q161 0 282 -63.5t185.5 -178.5t64.5 -266zM948 479q0 126 -32 231.5t-103.5 170.5t-187.5 65q-166 0 -244 -134.5t-78 -332.5 q0 -197 78 -331t244 -134q116 0 187.5 64.5t103.5 169t32 231.5zM874 1096h-75l-277 121q-71 30 -100 48.5t-29 61.5q0 30 20 52t50 22q21 0 43 -13t47 -34z" />
<glyph unicode="&#xf3;" horiz-adv-x="1251" d="M1159 479q0 -150 -64.5 -264.5t-185.5 -178t-282 -63.5q-162 0 -284.5 63.5t-186.5 178t-64 264.5q0 151 64.5 266t186.5 178.5t284 63.5q161 0 282 -63.5t185.5 -178.5t64.5 -266zM948 479q0 126 -32 231.5t-103.5 170.5t-187.5 65q-166 0 -244 -134.5t-78 -332.5 q0 -197 78 -331t244 -134q116 0 187.5 64.5t103.5 169t32 231.5zM469 1096h-76l320 258q56 47 90 47q31 0 51 -21t20 -53q0 -42 -28.5 -60.5t-102.5 -49.5z" />
<glyph unicode="&#xf4;" horiz-adv-x="1251" d="M1159 479q0 -150 -64.5 -264.5t-185.5 -178t-282 -63.5q-162 0 -284.5 63.5t-186.5 178t-64 264.5q0 151 64.5 266t186.5 178.5t284 63.5q161 0 282 -63.5t185.5 -178.5t64.5 -266zM948 479q0 126 -32 231.5t-103.5 170.5t-187.5 65q-166 0 -244 -134.5t-78 -332.5 q0 -197 78 -331t244 -134q116 0 187.5 64.5t103.5 169t32 231.5zM840 1096l-219 166l-228 -166h-61l233 305h113l225 -305h-63z" />
<glyph unicode="&#xf5;" horiz-adv-x="1251" d="M1159 479q0 -150 -64.5 -264.5t-185.5 -178t-282 -63.5q-162 0 -284.5 63.5t-186.5 178t-64 264.5q0 151 64.5 266t186.5 178.5t284 63.5q161 0 282 -63.5t185.5 -178.5t64.5 -266zM948 479q0 126 -32 231.5t-103.5 170.5t-187.5 65q-166 0 -244 -134.5t-78 -332.5 q0 -197 78 -331t244 -134q116 0 187.5 64.5t103.5 169t32 231.5zM387 1192h-55q8 44 35 87t66 69t85 26q37 0 71 -12t73 -31q29 -12 48 -19.5t40 -13.5t38 -6q52 0 72 74h53q-6 -69 -55 -127q-54 -61 -117 -61q-27 0 -49.5 5t-50 16t-53.5 22q-97 41 -129 41q-48 0 -72 -70z " />
<glyph unicode="&#xf6;" horiz-adv-x="1251" d="M1159 479q0 -150 -64.5 -264.5t-185.5 -178t-282 -63.5q-162 0 -284.5 63.5t-186.5 178t-64 264.5q0 151 64.5 266t186.5 178.5t284 63.5q161 0 282 -63.5t185.5 -178.5t64.5 -266zM948 479q0 126 -32 231.5t-103.5 170.5t-187.5 65q-166 0 -244 -134.5t-78 -332.5 q0 -197 78 -331t244 -134q116 0 187.5 64.5t103.5 169t32 231.5zM477 1149q-45 0 -74.5 32t-29.5 76t31.5 73.5t72.5 29.5t73 -30.5t32 -72.5q0 -44 -30 -76t-75 -32zM758 1149q-45 0 -75 32t-30 76q0 27 15.5 51.5t39.5 38t50 13.5q42 0 73 -30t31 -73q0 -44 -29 -76 t-75 -32z" />
<glyph unicode="&#xf7;" horiz-adv-x="1065" d="M68 477v96h929v-96h-929zM535 834q-46 0 -75.5 32t-29.5 78q0 43 31.5 71.5t73.5 28.5q41 0 72.5 -29.5t31.5 -70.5q0 -46 -29.5 -78t-74.5 -32zM535 6q-46 0 -75.5 32t-29.5 79q0 43 31.5 71.5t73.5 28.5q41 0 72.5 -29.5t31.5 -70.5q0 -47 -29.5 -79t-74.5 -32z" />
<glyph unicode="&#xf8;" horiz-adv-x="1251" d="M854 834l-410 -756q70 -64 181 -64q116 0 187.5 64.5t103.5 169t32 231.5q0 236 -94 355zM395 131l408 754q-70 61 -178 61q-166 0 -244 -134.5t-78 -332.5q0 -106 22.5 -195.5t69.5 -152.5zM408 10l-168 -309h-78l182 336q-121 62 -186.5 176.5t-65.5 265.5t64.5 266 t186.5 178.5t284 63.5q116 0 213 -33l159 295h80l-176 -323q123 -62 189.5 -178t66.5 -269q0 -150 -64.5 -264.5t-185.5 -178t-282 -63.5q-122 0 -219 37z" />
<glyph unicode="&#xf9;" horiz-adv-x="1251" d="M215 303v424q0 88 -8 124.5t-41.5 53.5t-110.5 17v43q168 -4 252 -4t252 4v-43q-77 0 -110.5 -17t-41.5 -53.5t-8 -124.5v-426q0 -125 62 -195.5t203 -70.5q301 0 301 317v381q0 83 -14 123t-49.5 53t-106.5 13v43q130 -4 194 -4q75 0 207 4v-43q-71 0 -106.5 -13 t-49.5 -53t-14 -123v-371q0 -195 -96 -292t-305 -97q-410 0 -410 330zM874 1096h-75l-277 121q-71 30 -100 48.5t-29 61.5q0 30 20 52t50 22q21 0 43 -13t47 -34z" />
<glyph unicode="&#xfa;" horiz-adv-x="1251" d="M215 303v424q0 88 -8 124.5t-41.5 53.5t-110.5 17v43q168 -4 252 -4t252 4v-43q-77 0 -110.5 -17t-41.5 -53.5t-8 -124.5v-426q0 -125 62 -195.5t203 -70.5q301 0 301 317v381q0 83 -14 123t-49.5 53t-106.5 13v43q130 -4 194 -4q75 0 207 4v-43q-71 0 -106.5 -13 t-49.5 -53t-14 -123v-371q0 -195 -96 -292t-305 -97q-410 0 -410 330zM469 1096h-76l320 258q56 47 90 47q31 0 51 -21t20 -53q0 -42 -28.5 -60.5t-102.5 -49.5z" />
<glyph unicode="&#xfb;" horiz-adv-x="1251" d="M215 303v424q0 88 -8 124.5t-41.5 53.5t-110.5 17v43q168 -4 252 -4t252 4v-43q-77 0 -110.5 -17t-41.5 -53.5t-8 -124.5v-426q0 -125 62 -195.5t203 -70.5q301 0 301 317v381q0 83 -14 123t-49.5 53t-106.5 13v43q130 -4 194 -4q75 0 207 4v-43q-71 0 -106.5 -13 t-49.5 -53t-14 -123v-371q0 -195 -96 -292t-305 -97q-410 0 -410 330zM840 1096l-219 166l-228 -166h-61l233 305h113l225 -305h-63z" />
<glyph unicode="&#xfc;" horiz-adv-x="1251" d="M215 303v424q0 88 -8 124.5t-41.5 53.5t-110.5 17v43q168 -4 252 -4t252 4v-43q-77 0 -110.5 -17t-41.5 -53.5t-8 -124.5v-426q0 -125 62 -195.5t203 -70.5q301 0 301 317v381q0 83 -14 123t-49.5 53t-106.5 13v43q130 -4 194 -4q75 0 207 4v-43q-71 0 -106.5 -13 t-49.5 -53t-14 -123v-371q0 -195 -96 -292t-305 -97q-410 0 -410 330zM498 1149q-46 0 -75.5 32t-29.5 76t31.5 73.5t73.5 29.5q41 0 72.5 -30.5t31.5 -72.5q0 -44 -29.5 -76t-74.5 -32zM778 1149q-44 0 -74 32t-30 76q0 27 14.5 51.5t38.5 38t51 13.5q42 0 73.5 -30 t31.5 -73q0 -44 -29.5 -76t-75.5 -32z" />
<glyph unicode="&#xfd;" d="M45 922v43q156 -4 236 -4q79 0 235 4v-43q-121 0 -121 -56q1 -22 9 -43.5t17.5 -40.5t35.5 -65l161 -273l177 267q15 24 31 49.5t24 45.5t8 42q0 26 -11 40t-27 19.5t-40 8.5t-45 6v43q120 -4 178 -4q57 0 181 4v-43q-66 -7 -101 -30.5t-73 -78.5l-271 -407v-173 q0 -89 8 -125t41.5 -53.5t110.5 -17.5v-41q-168 4 -252 4t-252 -4v41q77 0 110.5 17.5t41.5 53.5t8 125v142l-252 428q-36 60 -49 76t-34 23.5t-85 19.5zM412 1096h-76l319 258q59 47 90 47q32 0 52 -21.5t20 -52.5q0 -42 -29 -60.5t-102 -49.5z" />
<glyph unicode="&#xfe;" horiz-adv-x="1024" d="M418 727v-358q57 -4 108 -4q123 0 182.5 43t59.5 147q0 103 -60.5 146.5t-181.5 43.5q-65 0 -108 -8v-10zM233 233v494q0 88 -8 124.5t-41.5 53.5t-109.5 17v43q168 -4 252 -4t252 4v-43q-96 0 -126.5 -27.5t-33.5 -108.5h114q128 0 227.5 -22.5t159.5 -74t60 -134.5 q0 -124 -123.5 -177.5t-323.5 -53.5h-114v-91q0 -89 8 -125t41.5 -53.5t110.5 -17.5v-41q-168 4 -252 4t-252 -4v41q76 0 109.5 17.5t41.5 53.5t8 125z" />
<glyph unicode="&#xff;" d="M45 922v43q156 -4 236 -4q79 0 235 4v-43q-121 0 -121 -56q1 -22 9 -43.5t17.5 -40.5t35.5 -65l161 -273l177 267q15 24 31 49.5t24 45.5t8 42q0 26 -11 40t-27 19.5t-40 8.5t-45 6v43q120 -4 178 -4q57 0 181 4v-43q-66 -7 -101 -30.5t-73 -78.5l-271 -407v-173 q0 -89 8 -125t41.5 -53.5t110.5 -17.5v-41q-168 4 -252 4t-252 -4v41q77 0 110.5 17.5t41.5 53.5t8 125v142l-252 428q-36 60 -49 76t-34 23.5t-85 19.5zM440 1149q-45 0 -74.5 32t-29.5 76t31.5 73.5t72.5 29.5q40 0 72.5 -30.5t32.5 -72.5q0 -44 -30 -76t-75 -32z M721 1149q-45 0 -75 32.5t-30 75.5q0 27 15.5 51.5t39.5 38t50 13.5q42 0 73 -30t31 -73q0 -44 -29 -76t-75 -32z" />
<glyph unicode="&#x131;" horiz-adv-x="682" d="M432 719v-488q0 -87 8 -123.5t41.5 -53.5t110.5 -17v-41q-168 4 -252 4t-252 -4v41q77 0 110.5 17t41.5 53.5t8 123.5v488q0 87 -8 123.5t-41.5 53.5t-110.5 17v41q168 -4 252 -4t252 4v-41q-77 0 -110.5 -17t-41.5 -53.5t-8 -123.5z" />
<glyph unicode="&#x141;" horiz-adv-x="1270" d="M250 616v347q0 217 -21 272q-18 48 -61.5 59t-114.5 11v47q96 -2 158 -4t135 -5q52 2 104 3t112 3t95 3v-47q-70 0 -113.5 -11t-62.5 -59q-20 -55 -20 -272v-226l282 193v-84l-282 -199v-289q0 -140 21 -201.5t83 -83.5t197 -22q100 0 168 9t123 42q69 43 93 98t40 158 h51l-18 -362q-18 2 -35.5 3t-36 2.5t-35.5 2.5q-175 -1 -352 -2.5l-354 -3t-353 -2.5v47q71 0 115 12t61 58q21 55 21 272v143l-201 -129v82z" />
<glyph unicode="&#x142;" horiz-adv-x="1024" d="M664 596l-248 -90v-258q0 -64 8 -104.5t32 -64t72.5 -33t128.5 -9.5q113 0 172.5 32.5t81.5 81t39 128.5h39l-10 -283q-222 4 -426 4q-195 0 -298 -1.5t-183 -2.5v41q76 0 109.5 17t41.5 53.5t8 123.5v207l-157 -57v55l157 58v225q0 87 -8 123.5t-41.5 53.5t-109.5 17v41 q168 -4 252 -4q85 0 251 4v-41q-76 0 -109.5 -17t-41.5 -53.5t-8 -123.5v-158l248 90v-55z" />
<glyph unicode="&#x152;" horiz-adv-x="2048" d="M1067 502v504q-5 107 -27 173t-78.5 102t-162.5 36q-457 0 -457 -612q0 -299 97.5 -480.5t363.5 -181.5q114 0 172.5 49t75 125.5t16.5 190.5v94zM86 664q0 155 52 285.5t146 223.5t225 143t284 50h155q114 -2 185.5 -4t154.5 -4q71 1 153.5 2.5t157.5 2.5t153 2t136 1 v-305h-47q-19 119 -61.5 170.5t-108 64.5t-192.5 13h-148q-40 -3 -46.5 -6.5t-6.5 -26.5v-49v-496q136 0 206 32t95.5 85.5t32.5 136.5h47q-4 -188 -8 -283q4 -84 8 -256h-47q-15 105 -54 153.5t-101.5 61.5t-178.5 13v-338q0 -72 6 -123t31 -86q37 -47 105.5 -61.5 t156.5 -14.5q87 2 151.5 12t111 37.5t77 84t39.5 145.5h47l-18 -334q-191 2 -332 4t-365 4q-45 0 -112 -1l-134 -2t-146 -2.5t-146 -2.5q-146 0 -270 49.5t-213 141.5t-135 214t-46 263z" />
<glyph unicode="&#x153;" horiz-adv-x="1706" d="M889 270v420q0 118 -56.5 175t-197.5 57q-183 0 -264.5 -127.5t-81.5 -315.5q0 -189 81.5 -315.5t264.5 -126.5q140 0 197 57.5t57 175.5zM1073 895v-369q95 0 143 15t70 60t27 136h41q-4 -142 -4 -215q0 -69 4 -217h-41q-5 79 -26.5 116t-70.5 49.5t-143 12.5v-303 q0 -79 47 -111t154 -32q108 0 167 14.5t95 62.5t51 146h41l-12 -264q-77 1 -154 1.5t-143 1.5t-161 1h-177q-76 0 -123.5 -1l-95 -2t-121.5 -1q-149 0 -278 57t-207 168t-78 258q0 113 45.5 204t123.5 153t181 95.5t213 33.5q74 0 121.5 -1l95 -2t123.5 -1q199 0 575 4v-248 h-34q-12 87 -35.5 129.5t-69.5 59t-131 16.5h-176q-37 0 -37 -27z" />
<glyph unicode="&#x160;" horiz-adv-x="1065" d="M92 10v404h47q35 -174 128.5 -279.5t258.5 -105.5q81 0 148 30t106 89.5t39 138.5q0 86 -43 147.5t-106 98.5t-162 77q-84 33 -147 65.5t-118.5 81.5t-87.5 114t-32 147q0 114 54 199t146 129.5t205 44.5q164 0 310 -107l47 82h22l11 -358h-48q-89 325 -342 325 q-101 0 -170 -60.5t-69 -158.5q0 -75 38.5 -126t89.5 -78.5t144 -67.5q99 -40 173 -78t137 -90.5t102 -128t39 -170.5q0 -128 -70 -219.5t-182 -137t-238 -45.5q-103 0 -188 30t-170 93l-49 -86h-23zM301 1802l217 -164l227 164h64l-234 -305h-114l-223 305h63z" />
<glyph unicode="&#x161;" horiz-adv-x="909" d="M721 969l18 -277h-32q-49 102 -74 144.5t-74 76t-127 33.5q-73 0 -118.5 -41.5t-45.5 -107.5q0 -76 55 -112.5t196 -102t211.5 -132t70.5 -180.5q0 -76 -31 -134t-83.5 -92.5t-120.5 -52.5t-142 -18q-58 0 -130 26t-120 62l-49 -61h-19v305h39q11 -78 47.5 -145.5 t97.5 -106.5t140 -39q102 0 158.5 49t56.5 136t-64 130.5t-197 98.5t-202 117.5t-69 179.5q0 71 37.5 131t108.5 95.5t167 35.5q64 0 129.5 -23.5t118.5 -64.5l31 70h16zM223 1401l217 -164l228 164h63l-233 -305h-115l-223 305h63z" />
<glyph unicode="&#x178;" horiz-adv-x="1065" d="M631 543v-277q0 -106 10 -146t49 -54.5t144 -22.5v-47q-77 2 -141.5 4t-166.5 4q-104 -2 -169.5 -4t-143.5 -4v47q81 6 120.5 15.5t58 29.5t23.5 56t5 122v258l-189 328q-14 29 -65.5 127t-101.5 183.5t-82 117.5q-18 18 -34 23.5t-43 8t-42 5.5v49q23 0 58 -1l70 -2 t75.5 -2.5t74.5 -2.5q74 2 133.5 4t155.5 4v-49q-154 0 -154 -66q0 -24 7.5 -47t21 -49t25.5 -49l266 -498l131 211q203 340 203 412q0 51 -37.5 64.5t-110.5 21.5v49q74 -2 119.5 -4t99.5 -4q52 2 92.5 4t108.5 4v-49q-56 -4 -93.5 -28.5t-62 -58t-61.5 -97.5zM383 1550 q-45 0 -74.5 32t-29.5 77q0 43 31.5 72.5t72.5 29.5q40 0 72 -31t32 -71q0 -45 -29.5 -77t-74.5 -32zM664 1550q-45 0 -75 32t-30 77q0 42 32 72t73 30t72.5 -30.5t31.5 -71.5q0 -45 -29 -77t-75 -32z" />
<glyph unicode="&#x17d;" horiz-adv-x="1229" d="M1153 373l-31 -373h-1050l784 1296h-297q-127 0 -198 -16.5t-116.5 -75t-62.5 -180.5h-55l20 328h975l-780 -1297h346q144 0 219.5 22t118.5 88t72 208h55zM383 1784l217 -162l227 162h64l-234 -301h-114l-224 301h64z" />
<glyph unicode="&#x17e;" horiz-adv-x="1024" d="M70 0l612 909h-266q-106 0 -175.5 -48t-76.5 -150h-41l20 239h779l-617 -909h268q146 0 223 45.5t105 183.5h37l-18 -270h-850zM281 1386l217 -161l227 161h63l-233 -301h-115l-223 301h64z" />
<glyph unicode="&#x192;" horiz-adv-x="1065" d="M866 1001h-213l-61 -380q-13 -85 -27 -161t-30.5 -150.5t-39.5 -148t-51 -132.5q-63 -138 -140 -214.5t-204 -76.5q-68 0 -124 25.5t-56 84.5q0 40 25.5 67.5t64.5 27.5q35 0 52.5 -19.5t31.5 -57t26.5 -55.5t39.5 -18q56 0 98 67.5t66.5 162.5t38.5 183.5t22 151.5 l96 643h-186l16 56h181l20 108q26 117 46 171.5t69 117.5q64 82 146 128t179 46q57 0 103.5 -28.5t46.5 -81.5q0 -36 -27.5 -62t-62.5 -26q-33 0 -53 17t-39 50t-32 49.5t-34 16.5q-43 0 -72 -35t-45 -84q-30 -88 -61 -283l-19 -104h224z" />
<glyph unicode="&#x2c6;" horiz-adv-x="860" d="M643 1096l-219 166l-227 -166h-62l234 305h112l226 -305h-64z" />
<glyph unicode="&#x2c7;" horiz-adv-x="860" d="M199 1386l217 -161l227 161h64l-234 -301h-115l-223 301h64z" />
<glyph unicode="&#x2d8;" horiz-adv-x="819" d="M645 1343h55q-4 -74 -43.5 -133t-101.5 -91t-137 -32q-77 0 -139.5 32t-101 90.5t-42.5 133.5h53q26 -68 89.5 -101.5t140.5 -33.5q75 0 141.5 34.5t85.5 100.5z" />
<glyph unicode="&#x2d9;" horiz-adv-x="492" d="M240 1137q-46 0 -75.5 32t-29.5 76q0 43 31.5 72t73.5 29t73 -30t31 -71q0 -44 -29.5 -76t-74.5 -32z" />
<glyph unicode="&#x2da;" horiz-adv-x="655" d="M326 1075q-77 0 -134 55t-57 132q0 49 26 92t69.5 67.5t93.5 24.5q49 0 94 -23.5t72.5 -65t27.5 -91.5q0 -82 -55.5 -136.5t-136.5 -54.5zM330 1135q48 0 83.5 37.5t35.5 87.5q0 54 -36 91.5t-89 37.5q-52 0 -85.5 -38.5t-33.5 -88.5q0 -52 36.5 -89.5t88.5 -37.5z" />
<glyph unicode="&#x2db;" horiz-adv-x="614" d="M459 -160l41 -51q-37 -48 -97.5 -80.5t-117.5 -32.5q-55 0 -103.5 29t-48.5 82q0 138 270 213h41v-4q-190 -93 -190 -168q0 -27 21.5 -47.5t46.5 -20.5q57 0 137 80z" />
<glyph unicode="&#x2dc;" horiz-adv-x="860" d="M190 1192h-55q15 74 66 128t121 54q51 0 143 -43q28 -12 48.5 -20t41.5 -13.5t37 -5.5q50 0 72 74h53q-6 -67 -55 -127q-54 -61 -117 -61q-27 0 -50 5t-50.5 16t-53.5 22q-97 41 -129 41q-46 0 -72 -70z" />
<glyph unicode="&#x2dd;" horiz-adv-x="1106" d="M485 1204l-274 -119h-76l320 254q54 47 90 47q30 0 50.5 -20.5t20.5 -50.5t-19 -50t-52 -35t-60 -26zM836 1204l-277 -119h-76l322 254q54 47 90 47q29 0 49.5 -21.5t20.5 -49.5q0 -23 -11 -39.5t-32.5 -31t-41.5 -22.5t-44 -18z" />
<glyph unicode="&#x2000;" horiz-adv-x="931" />
<glyph unicode="&#x2001;" horiz-adv-x="1862" />
<glyph unicode="&#x2002;" horiz-adv-x="931" />
<glyph unicode="&#x2003;" horiz-adv-x="1862" />
<glyph unicode="&#x2004;" horiz-adv-x="620" />
<glyph unicode="&#x2005;" horiz-adv-x="465" />
<glyph unicode="&#x2006;" horiz-adv-x="310" />
<glyph unicode="&#x2007;" horiz-adv-x="310" />
<glyph unicode="&#x2008;" horiz-adv-x="232" />
<glyph unicode="&#x2009;" horiz-adv-x="372" />
<glyph unicode="&#x200a;" horiz-adv-x="103" />
<glyph unicode="&#x2010;" horiz-adv-x="682" d="M494 395h-494v140h494v-140z" />
<glyph unicode="&#x2011;" horiz-adv-x="682" d="M494 395h-494v140h494v-140z" />
<glyph unicode="&#x2012;" horiz-adv-x="682" d="M494 395h-494v140h494v-140z" />
<glyph unicode="&#x2013;" d="M1139 395h-1139v140h1139v-140z" />
<glyph unicode="&#x2014;" horiz-adv-x="2048" d="M1792 395h-1536v140h1536v-140z" />
<glyph unicode="&#x2018;" horiz-adv-x="614" d="M389 1411l27 -35q-60 -52 -88.5 -84t-46 -77.5t-17.5 -110.5q34 26 68 26q30 0 53.5 -15.5t37 -42t13.5 -52.5q0 -46 -35.5 -77.5t-81.5 -31.5q-64 0 -101.5 58.5t-37.5 124.5q0 105 51 174t158 143z" />
<glyph unicode="&#x2019;" horiz-adv-x="614" d="M227 911l-26 37q83 70 117 123.5t34 147.5q-32 -27 -67 -27q-45 0 -75 33t-30 78q0 47 35.5 77.5t81.5 30.5q44 0 75.5 -28t47.5 -70t16 -84q0 -108 -53 -177.5t-156 -140.5z" />
<glyph unicode="&#x201a;" horiz-adv-x="614" d="M227 -301l-26 35q83 70 117 123.5t34 146.5q-34 -27 -67 -27q-44 0 -74.5 34t-30.5 77q0 46 35.5 77.5t81.5 31.5q64 0 101.5 -58.5t37.5 -124.5q0 -107 -52.5 -176.5t-156.5 -138.5z" />
<glyph unicode="&#x201c;" horiz-adv-x="819" d="M666 1411l26 -35q-84 -73 -117.5 -125t-33.5 -147q32 26 67 26q29 0 53.5 -15.5t38 -42t13.5 -52.5q0 -46 -35.5 -77.5t-81.5 -31.5q-64 0 -101.5 58.5t-37.5 124.5q0 105 51 174t158 143zM315 1411l27 -35q-60 -52 -88.5 -84t-46 -77.5t-17.5 -110.5q34 26 68 26 q30 0 53.5 -15.5t37 -42t13.5 -52.5q0 -46 -34.5 -77.5t-81.5 -31.5q-64 0 -102 58t-38 125q0 105 52 174.5t157 142.5z" />
<glyph unicode="&#x201d;" horiz-adv-x="819" d="M154 911l-27 37q83 70 117.5 123.5t34.5 147.5q-33 -27 -68 -27q-46 0 -75.5 33t-29.5 78q0 47 35.5 77.5t81.5 30.5q44 0 75.5 -28t47.5 -70t16 -84q0 -108 -52.5 -177t-155.5 -141zM504 911l-27 37q83 70 117.5 123.5t34.5 147.5q-33 -27 -68 -27q-44 0 -74 33t-30 78 q0 49 35.5 78.5t80.5 29.5t76.5 -28t47.5 -69.5t16 -84.5q0 -108 -53 -177.5t-156 -140.5z" />
<glyph unicode="&#x201e;" horiz-adv-x="819" d="M154 -301l-27 35q83 70 117.5 123.5t34.5 146.5q-35 -27 -68 -27q-44 0 -74.5 33.5t-30.5 77.5q0 46 35.5 77.5t81.5 31.5q64 0 101.5 -58.5t37.5 -124.5q0 -107 -52 -176t-156 -139zM504 -301l-27 35q83 70 117.5 123.5t34.5 146.5q-35 -27 -68 -27q-43 0 -73.5 34 t-30.5 77q0 48 35.5 78.5t80.5 30.5q65 0 102.5 -58.5t37.5 -124.5q0 -107 -52.5 -176.5t-156.5 -138.5z" />
<glyph unicode="&#x2020;" horiz-adv-x="1024" d="M844 840q0 34 9.5 51.5t41.5 17.5t49 -17t17 -48q0 -40 -29.5 -67t-69.5 -27q-24 0 -43 7t-53 23q-53 31 -90 31q-36 0 -66.5 -25t-50.5 -61l66 -70l-82 -1099h-49q-4 73 -9.5 195t-10 228t-9.5 211l-59 465l63 70q-16 34 -51 62t-70 28q-36 0 -88 -31q-54 -32 -94 -32 t-70 28.5t-30 69.5q0 26 16.5 42.5t44.5 16.5q32 0 43.5 -14t11.5 -47q0 -41 13 -41q9 0 17 7.5t16 21.5t16 26q31 47 86 47q51 0 88 -37q10 -10 20 -21t17 -16.5t12 -5.5q20 0 20 25q0 21 -28.5 96.5t-28.5 118.5q0 51 27.5 110t27.5 62q0 11 -21.5 39.5t-21.5 58.5 q0 32 22 52t52 20q26 0 47 -20t21 -45q0 -23 -8 -38t-22.5 -35t-14.5 -30q0 -15 16.5 -44.5t28.5 -59.5t12 -70q0 -45 -27.5 -123.5t-27.5 -97.5q0 -21 12 -21q4 0 11.5 4t16 11t16 14.5l15.5 15.5q41 37 88 37q51 0 82 -47q10 -17 18.5 -29.5t15 -19t15.5 -6.5q13 0 13 33z " />
<glyph unicode="&#x2021;" horiz-adv-x="1024" d="M551 1006l61 -66l-75 -430h-48l-73 430l59 66q-27 12 -61 12q-41 0 -109 -33q-60 -35 -96 -35q-37 0 -64.5 23.5t-27.5 60.5q0 33 16 53.5t49 20.5q30 0 38.5 -16.5t12.5 -46t13 -29.5q10 0 28 18q30 37 56.5 55.5t66.5 18.5q22 0 45 -10q0 77 21 116q5 11 14.5 25 t9.5 23q0 10 -14 28q-16 24 -20 30.5t-4 20.5q0 27 19 48.5t46 21.5q24 0 44 -19t20 -44q0 -26 -21 -52q-18 -24 -18 -30q0 -12 8 -23t14 -24q23 -36 23 -121q23 10 45 10q63 0 121 -68q18 -24 28 -24q15 0 15 26q3 33 14.5 49.5t42.5 16.5q29 0 44 -21.5t15 -52.5 q0 -35 -25.5 -59.5t-60.5 -24.5q-28 0 -46 7.5t-56 27.5q-64 33 -109 33q-31 0 -61 -12zM475 -41l-59 66l73 428h48l75 -428l-61 -66q30 -12 61 -12q52 0 109 35q66 32 102 32t61 -24t25 -60q0 -32 -15 -53.5t-44 -21.5q-31 0 -42 16.5t-15 50.5q0 27 -15 27q-9 0 -28 -25 q-56 -69 -121 -69q-22 0 -45 10q0 -84 -23 -119q-5 -9 -13.5 -22t-8.5 -25q0 -9 18 -33q21 -24 21 -49q0 -24 -20.5 -43.5t-43.5 -19.5q-26 0 -45.5 21t-19.5 46q0 19 24 51q14 19 14 31q0 7 -4 14.5t-9 14.5t-11 18q-21 40 -21 115q-23 -10 -45 -10q-39 0 -65 18t-58 57 q-17 19 -28 19q-5 0 -7.5 -4.5t-4 -15.5t-3.5 -25q-7 -49 -49 -49q-33 0 -49 20.5t-16 54.5q0 39 26.5 61.5t65.5 22.5q34 0 96 -32q61 -35 109 -35q34 0 61 12z" />
<glyph unicode="&#x2022;" horiz-adv-x="942" d="M465 352q-91 0 -170.5 47t-127.5 129t-48 177q0 96 48.5 177t131 128t178.5 47q92 0 171.5 -47t127 -128.5t47.5 -176.5t-48 -177t-130 -129t-180 -47z" />
<glyph unicode="&#x2026;" horiz-adv-x="2048" d="M1024 -27q-48 0 -82.5 34.5t-34.5 80.5q0 48 31.5 84.5t79.5 36.5t85.5 -31.5t37.5 -83.5q0 -49 -34 -85t-83 -36zM1706 -27q-47 0 -82 34t-35 81q0 48 31.5 84.5t79.5 36.5t85.5 -31.5t37.5 -83.5q0 -49 -34 -85t-83 -36zM342 -27q-48 0 -82.5 34.5t-34.5 80.5 q0 48 31.5 84.5t79.5 36.5q49 0 86 -32t37 -83q0 -49 -34 -85t-83 -36z" />
<glyph unicode="&#x202f;" horiz-adv-x="372" />
<glyph unicode="&#x2030;" horiz-adv-x="2662" d="M1448 1511l-979 -1663h-84l866 1477l-4 4q-66 -37 -119.5 -55.5t-119.5 -18.5q-33 0 -70.5 7.5t-89.5 23.5q22 -62 22 -141q0 -106 -46 -222t-130.5 -195t-189.5 -79q-138 0 -226 93.5t-88 234.5q0 108 55.5 220t150 184.5t204.5 72.5q65 0 106 -18t92 -54t94.5 -53.5 t111.5 -17.5q198 0 376 200h68zM641 1399q-86 0 -154 -86.5t-105.5 -204.5t-37.5 -203q0 -78 43 -137t117 -59q71 0 128 46t96.5 120.5t58 154t18.5 144.5q0 55 -17 107t-54.5 85t-92.5 33zM1292 -98q-135 0 -222 89.5t-87 225.5q0 115 54.5 227.5t151 185t212.5 72.5 q85 0 144.5 -39t90.5 -104.5t31 -150.5q0 -82 -25.5 -173t-71.5 -164.5t-117.5 -121t-160.5 -47.5zM1427 647q-83 0 -149 -86t-103.5 -204.5t-37.5 -198.5q0 -83 42.5 -142t118.5 -59q92 0 161 78t106 188.5t37 198.5q0 55 -19 107t-58.5 85t-97.5 33zM2097 -98 q-134 0 -220.5 89.5t-86.5 225.5q0 115 54.5 227.5t150 185t211.5 72.5q85 0 144.5 -39t90.5 -104.5t31 -150.5q0 -82 -25.5 -173t-71.5 -164.5t-117.5 -121t-160.5 -47.5zM2234 647q-83 0 -149 -86t-103.5 -204.5t-37.5 -198.5q0 -82 42 -141.5t119 -59.5q70 0 126.5 46 t95 119t59 153.5t20.5 146.5q0 55 -18.5 107t-57 85t-96.5 33z" />
<glyph unicode="&#x2039;" horiz-adv-x="655" d="M446 176l-299 281q32 27 94 81t93 80l121 117q6 6 12.5 12t12.5 10.5t14 4.5q6 0 11 -5t5 -12q0 -22 -39.5 -77.5t-73.5 -94.5l-94 -116l90 -113q115 -145 115 -178q0 -7 -6 -14t-13 -7q-6 0 -13.5 5t-15.5 13t-14 13z" />
<glyph unicode="&#x203a;" horiz-adv-x="655" d="M209 739l299 -282q-99 -83 -186 -162l-121 -115q-4 -3 -11 -9.5t-14 -11.5t-14 -5q-5 0 -11 5t-6 11q0 21 38 75t75 97l94 115l-90 114q-17 23 -42.5 56t-49 70t-23.5 53q0 8 5 14t14 6q10 0 22 -10.5t21 -20.5z" />
<glyph unicode="&#x2044;" horiz-adv-x="246" d="M668 1384l-979 -1384h-109l977 1384h111z" />
<glyph unicode="&#x205f;" horiz-adv-x="465" />
<glyph unicode="&#x2122;" horiz-adv-x="2007" d="M602 575h-373v41q84 0 107 13q22 14 22 78v653h-84q-90 0 -123.5 -29.5t-33.5 -118.5h-47v199h692v-199h-47q0 89 -33.5 118.5t-124.5 29.5h-84v-653q0 -64 23 -78q22 -13 106 -13v-41zM1806 1331v-618q0 -44 7 -62t28 -25t64 -10v-41h-318v41q52 4 70.5 8.5t26.5 22.5 t8 64v616h-4l-308 -752h-16l-309 752h-4v-641q0 -45 24 -57.5t78 -12.5v-41h-252v41q59 2 78.5 12t19.5 56v612q0 36 -5 51.5t-19.5 19t-56.5 3.5v41h223l264 -637l270 637h230v-41q-56 0 -77.5 -7.5t-21.5 -31.5z" />
<glyph unicode="&#x2212;" horiz-adv-x="1065" d="M68 473v94h929v-94h-929z" />
<glyph unicode="&#x2219;" horiz-adv-x="655" d="M197 526q0 54 37.5 93.5t91.5 39.5q55 0 94 -38t39 -95q0 -55 -38.5 -96t-92.5 -41q-53 0 -92 40.5t-39 96.5z" />
<glyph unicode="&#x25fc;" horiz-adv-x="965" d="M0 965h965v-965h-965v965z" />
<glyph unicode="&#xf001;" horiz-adv-x="1591" d="M389 457v-226q0 -87 8 -123.5t41.5 -53.5t110.5 -17v-41q-168 4 -252 4t-252 -4v41q77 0 110.5 17t41.5 53.5t8 123.5v488q0 87 -8 123.5t-41.5 53.5t-110.5 17v41q168 -4 252 -4q199 0 575 4l21 -243h-35q-25 108 -79.5 155t-176.5 47h-176q-37 0 -37 -26v-389 q135 0 184 35.5t56 158.5h41q-4 -130 -4 -198q0 -71 4 -213h-41q-5 77 -27 114t-71 49.5t-142 12.5zM1341 719v-488q0 -82 8.5 -121t42 -56t109.5 -17v-41q-168 4 -252 4t-252 -4v41q77 0 110.5 17t41.5 53.5t8 123.5v488q0 87 -8 123.5t-41.5 53.5t-110.5 17v41 q168 -4 252 -4t252 4v-41q-76 0 -109.5 -17t-42 -56t-8.5 -121z" />
<glyph unicode="&#xf002;" horiz-adv-x="1933" d="M389 457v-226q0 -87 8 -123.5t41.5 -53.5t110.5 -17v-41q-168 4 -252 4t-252 -4v41q77 0 110.5 17t41.5 53.5t8 123.5v488q0 87 -8 123.5t-41.5 53.5t-110.5 17v41q168 -4 252 -4q199 0 575 4l21 -243h-35q-25 108 -79.5 155t-176.5 47h-176q-37 0 -37 -26v-389 q135 0 184 35.5t56 158.5h41q-4 -130 -4 -198q0 -71 4 -213h-41q-5 77 -27 114t-71 49.5t-142 12.5zM1325 719v-471q0 -64 8 -105t32.5 -64t73 -32.5t128.5 -9.5q112 0 171.5 32.5t80.5 78.5t41 131h38l-10 -283q-220 4 -426 4q-259 0 -481 -4v41q77 0 110.5 17t41.5 53.5 t8 123.5v488q0 87 -8 123.5t-41.5 53.5t-110.5 17v41q168 -4 252 -4t252 4v-41q-77 0 -110.5 -17t-41.5 -53.5t-8 -123.5z" />
</font>
</defs>
</svg>
